<svg version="1.1" id="Layer_1" xmlns="http://www.w3.org/2000/svg" x="0" y="0" viewBox="0 0 900 388" style="enable-background:new 0 0 900 388" xml:space="preserve"><style>.st0{fill:#fff}.st1,.st2{fill:none;stroke:#ced6e9;stroke-miterlimit:10}.st2{stroke-dasharray:3.9859,3.9859}.st3{fill:#333}.st4{font-family:&apos;ArialMT&apos;}.st6{fill:#555}.st7{fill:#666}.st8{font-size:10px}.st9{fill:#ececec}.st10{fill:#62b996}.st11{font-size:11px}.st12{fill:none;stroke:#000;stroke-miterlimit:10}</style><path class="st0" d="M0 0h900v388H0z"/><path class="st1" d="M183.638 60.254v2"/><path class="st2" d="M183.638 66.24v229.191"/><path class="st1" d="M183.638 297.424v2M251.938 60.254v2"/><path class="st2" d="M251.938 66.24v229.191"/><path class="st1" d="M251.938 297.424v2M320.24 60.254v2"/><path class="st2" d="M320.24 66.24v229.191"/><path class="st1" d="M320.24 297.424v2M388.307 60.254v2"/><path class="st2" d="M388.307 66.24v229.191"/><path class="st1" d="M388.307 297.424v2M456.375 60.254v2"/><path class="st2" d="M456.375 66.24v229.191"/><path class="st1" d="M456.375 297.424v2M525.264 60.254v2"/><path class="st2" d="M525.264 66.24v229.191"/><path class="st1" d="M525.264 297.424v2M593.449 60.254v2"/><path class="st2" d="M593.449 66.24v229.191"/><path class="st1" d="M593.449 297.424v2M661.516 60.254v2"/><path class="st2" d="M661.516 66.24v229.191"/><path class="st1" d="M661.516 297.424v2M729.584 60.254v2"/><path class="st2" d="M729.584 66.24v229.191"/><path class="st1" d="M729.584 297.424v2M797.769 60.254v2"/><path class="st2" d="M797.769 66.24v229.191"/><path class="st1" d="M797.769 297.424v2M866.658 60.254v2"/><path class="st2" d="M866.658 66.24v229.191"/><path class="st1" d="M866.658 297.424v2"/><text transform="translate(32.718 42.07)" class="st3 st4" style="font-size:14px">My sales team’s performance </text><path class="st6" d="m233.706 37.482-.842-.076c-.082 1.239-.736 2.501-1.765 3.249-1.928 1.403-4.704.965-6.107-.964-1.403-1.928-.965-4.704.964-6.107 1.864-1.356 4.482-1 5.92.707l-2.051.018-.012.795h3.243v-3.243l-.748.053.024 1.654c-1.894-2.063-4.722-2.168-6.843-.625-2.314 1.683-2.822 4.903-1.139 7.217s4.903 2.822 7.217 1.139c1.221-.89 2.069-2.292 2.139-3.817z"/><text transform="translate(48.553 87.703)" class="st7 st4 st8">Quinn Rivers</text><text transform="translate(35.643 135.11)" class="st7 st4 st8">Amelia Burrows</text><text transform="translate(58.733 183.275)" class="st7 st4 st8">Joane Lee</text><text transform="translate(52.893 231.547)" class="st7 st4 st8">Martha Hills</text><text transform="translate(51.913 278.847)" class="st7 st4 st8">Raghav Rao</text><text transform="translate(107.464 333.147)" class="st6 st4 st8">Sum of Amount</text><text transform="translate(826.433 352.433)" class="st3 st4 st8">Achieved</text><text transform="translate(113.263 315.642)" class="st7 st4 st8">0</text><text transform="translate(177.89 315.642)" class="st7 st4 st8">1M</text><text transform="translate(245.022 315.642)" class="st7 st4 st8">2M</text><text transform="translate(313.332 315.642)" class="st7 st4 st8">3M</text><text transform="translate(381.681 315.642)" class="st7 st4 st8">4M</text><text transform="translate(449.721 315.642)" class="st7 st4 st8">5M</text><text transform="translate(517.71 315.642)" class="st7 st4 st8">6M</text><text transform="translate(586.288 315.642)" class="st7 st4 st8">7M</text><text transform="translate(654.158 315.642)" class="st7 st4 st8">8M</text><text transform="translate(722.248 315.642)" class="st7 st4 st8">9M</text><text transform="translate(788.45 315.642)" class="st7 st4 st8">10M</text><text transform="translate(850.342 315.642)" class="st7 st4 st8">11M</text><path class="st9" d="M115.882 257.263h706.95v37.201h-706.95zM115.882 210.096h706.95v37.201h-706.95zM115.882 161.938h706.95v37.201h-706.95zM115.882 113.779h706.95v37.201h-706.95zM115.882 66.522h706.95v37.201h-706.95z"/><path class="st10" d="M116.017 261.727h589.44v27.236h-589.44zM116.017 214.47H628.98v27.236H116.017zM116.017 166.311h130.439v27.236H116.017zM116.017 119.055h553.774v27.236H116.017zM116.017 70.896h449.284v27.236H116.017z"/><path class="st1" d="M115.541 60.254v239.17"/><text transform="translate(137.294 87.796)" class="st4 st11">Target : $ 69,000.00</text><text transform="translate(137.294 135.111)" class="st4 st11">Target : $ 28,000.00</text><text transform="translate(137.294 231.547)" class="st4 st11">Target : $ 54,000.00</text><text transform="translate(137.294 278.847)" class="st4 st11">Target : $ 37,000.00</text><text transform="translate(160.185 182.406)" class="st0 st4 st11">$ 1,913,000.00</text><text transform="translate(475.249 87.796)" class="st0 st4 st11">$ 6,587,340.00</text><text transform="translate(582.19 135.111)" class="st0 st4 st11">$ 8,130,300.00</text><text transform="translate(539.369 231.547)" class="st0 st4 st11">$ 7,523,399.00</text><text transform="translate(614.847 278.847)" class="st0 st4 st11">$ 8,649,380.00</text><path class="st12" d="M120.524 65.237v38.413M120.524 113.403v38.413M120.524 160.739v38.413M120.524 208.905v38.413M120.524 256.241v38.413"/><path class="st10" d="M811.083 344.436h10.062v10.062h-10.062z"/></svg>