<?xml version="1.0" encoding="utf-8"?>
<!-- Generator: Adobe Illustrator 26.2.1, SVG Export Plug-In . SVG Version: 6.00 Build 0)  -->
<svg version="1.1" id="Layer_1" xmlns="http://www.w3.org/2000/svg" xmlns:xlink="http://www.w3.org/1999/xlink" x="0px" y="0px"
	 viewBox="0 0 900 400" style="enable-background:new 0 0 900 400;" xml:space="preserve">
<style type="text/css">
	.st0{fill:#FFFFFF;}
	.st1{fill:#C2DAFF;}
	.st2{fill:#303133;stroke:#000000;stroke-width:1.418;stroke-miterlimit:10;}
	.st3{stroke:#000000;stroke-width:0.709;stroke-miterlimit:10;}
	.st4{fill:#FFFFFF;stroke:#000000;stroke-width:1.418;stroke-miterlimit:10;}
	.st5{stroke:#000000;stroke-width:0.709;stroke-linecap:round;stroke-linejoin:round;stroke-miterlimit:10;}
	.st6{fill:#0067FF;}
</style>
<g>
	<rect class="st0" width="900" height="400"/>
</g>
<g>
	<g>
		<g>
			<path d="M248.389,224.062l-0.059-3.104c-0.01-0.533,0.414-0.973,0.946-0.983c0.525-0.01,0.96,0.407,0.982,0.928l0.129,3.093
				c0.025,0.552-0.401,1.02-0.953,1.045c-0.552,0.025-1.02-0.401-1.045-0.953C248.389,224.083,248.389,224.068,248.389,224.062z"/>
			<path d="M248.284,217.854l-0.032-3.109c-0.005-0.494,0.391-0.898,0.885-0.903c0.486-0.005,0.886,0.385,0.903,0.869l0.102,3.099
				c0.019,0.513-0.381,0.944-0.894,0.964c-0.513,0.019-0.944-0.381-0.964-0.894C248.285,217.874,248.284,217.86,248.284,217.854z"/>
			<path d="M248.236,211.638l-0.002-3.107c0-0.455,0.368-0.823,0.823-0.824c0.448,0,0.813,0.362,0.824,0.808l0.073,3.097
				c0.013,0.474-0.36,0.869-0.834,0.883c-0.474,0.013-0.869-0.36-0.883-0.834C248.236,211.657,248.236,211.643,248.236,211.638z"/>
			<path d="M248.246,205.426l0.028-3.104c0.004-0.415,0.344-0.749,0.759-0.745c0.409,0.004,0.74,0.339,0.746,0.746l0.042,3.096
				c0.008,0.435-0.338,0.794-0.773,0.802c-0.435,0.008-0.794-0.338-0.802-0.773C248.246,205.444,248.246,205.431,248.246,205.426z"
				/>
			<path d="M248.318,199.218l0.059-3.101c0.007-0.376,0.318-0.676,0.694-0.669c0.371,0.007,0.667,0.313,0.669,0.682l0.012,3.095
				c0.003,0.396-0.315,0.72-0.711,0.723c-0.396,0.003-0.72-0.315-0.723-0.711C248.318,199.233,248.318,199.222,248.318,199.218z"/>
			<path d="M248.451,193.015l0.087-3.101c0.009-0.337,0.291-0.603,0.628-0.593c0.332,0.009,0.595,0.286,0.594,0.617l-0.016,3.096
				c0,0.357-0.29,0.646-0.647,0.646c-0.357,0-0.646-0.29-0.646-0.647C248.45,193.029,248.451,193.019,248.451,193.015z"/>
			<path d="M248.638,186.815l0.112-3.098c0.011-0.298,0.261-0.531,0.559-0.52c0.294,0.011,0.524,0.256,0.521,0.549l-0.041,3.096
				c-0.003,0.318-0.263,0.573-0.581,0.57c-0.318-0.003-0.573-0.263-0.57-0.581C248.638,186.826,248.638,186.818,248.638,186.815z"/>
			<path d="M248.872,180.62l0.13-3.096c0.011-0.259,0.23-0.46,0.489-0.449c0.255,0.011,0.454,0.225,0.45,0.479l-0.06,3.095
				c-0.005,0.279-0.234,0.501-0.513,0.496c-0.279-0.005-0.501-0.234-0.496-0.513C248.872,180.629,248.872,180.623,248.872,180.62z"
				/>
			<path d="M249.14,174.429l0.142-3.094c0.01-0.22,0.197-0.39,0.416-0.38c0.217,0.01,0.385,0.192,0.38,0.408l-0.071,3.095
				c-0.005,0.24-0.204,0.43-0.443,0.424s-0.43-0.204-0.424-0.443C249.139,174.437,249.139,174.432,249.14,174.429z"/>
			<path d="M249.426,168.242l0.146-3.094c0.009-0.181,0.162-0.321,0.343-0.312c0.178,0.008,0.316,0.158,0.312,0.336l-0.076,3.096
				c-0.005,0.201-0.171,0.359-0.372,0.354s-0.359-0.171-0.354-0.372C249.426,168.248,249.426,168.244,249.426,168.242z"/>
			<path d="M249.718,162.054l0.144-3.094c0.006-0.142,0.127-0.252,0.269-0.245c0.14,0.006,0.248,0.124,0.245,0.263l-0.073,3.097
				c-0.004,0.161-0.138,0.289-0.299,0.285s-0.289-0.138-0.286-0.299C249.718,162.059,249.718,162.056,249.718,162.054z"/>
			<path d="M250.003,155.864l0.136-3.096c0.004-0.103,0.091-0.183,0.194-0.178c0.101,0.004,0.18,0.089,0.178,0.19l-0.066,3.099
				c-0.003,0.122-0.104,0.22-0.226,0.217s-0.22-0.104-0.217-0.226C250.003,155.868,250.003,155.866,250.003,155.864z"/>
			<path d="M250.27,149.672l0.125-3.097c0.002-0.064,0.056-0.114,0.12-0.111c0.063,0.002,0.112,0.055,0.111,0.118l-0.054,3.099
				c-0.001,0.083-0.07,0.15-0.154,0.148s-0.15-0.07-0.148-0.154C250.27,149.675,250.27,149.673,250.27,149.672z"/>
			<path d="M250.514,143.481l0.111-3.097c0.001-0.025,0.022-0.044,0.046-0.043c0.024,0.001,0.044,0.021,0.043,0.045l-0.041,3.099
				c-0.001,0.044-0.037,0.08-0.081,0.079s-0.08-0.037-0.079-0.081C250.514,143.483,250.514,143.482,250.514,143.481z"/>
			<path d="M250.729,137.286l0.027-0.849l-0.008,0.849c0,0.005-0.004,0.009-0.01,0.009
				C250.733,137.296,250.729,137.292,250.729,137.286C250.729,137.287,250.729,137.287,250.729,137.286z"/>
		</g>
	</g>
	<path class="st0" d="M571.216,317.53c-6.332-4.202-10.921-10.949-12.505-18.382c-0.791-3.71-0.856-7.538-0.727-11.329
		c0.1-2.93,0.318-5.872,1.009-8.722c1.847-7.623,7.006-14.126,13.188-18.954c1.814-1.416,3.737-2.717,5.847-3.634
		c2.962-1.286,6.198-1.777,9.396-2.228c3.499-0.493,7.029-0.954,10.556-0.744c7.455,0.443,14.64,3.996,19.669,9.516
		c5.03,5.52,7.89,12.922,8.083,20.388c0.215,8.287-2.743,16.414-7.073,23.482c-1.604,2.619-3.419,5.143-5.705,7.194
		c-5.748,5.158-13.789,6.785-21.462,7.664c-4.233,0.485-8.568,0.797-12.716-0.174c-4.149-0.971-8.14-3.411-10.055-7.217"/>
	<path class="st1" d="M548.091,77.476c1.654,0,3.308,0,4.962,0c1.147,0.243,2.285,0.639,3.442,0.704
		c5.466,0.308,10.793,1.413,15.951,3.119c20.222,6.686,34.747,20.504,46.352,37.748c7.862,11.682,12.717,24.786,16.64,38.192
		c6.854,23.418,10.094,47.375,8.083,71.731c-2.668,32.316-14.177,61.167-35.363,86.032c-19.077,22.39-43.314,35.729-71.831,41.663
		c-15.072,3.136-30.272,2.73-45.467,0.743c-31.291-4.092-57.371-17.87-78.27-41.607c-5.209-5.916-11.44-11.002-18.426-14.608
		c-10.368-5.353-21.161-9.884-31.776-14.759c-13.222-6.072-23.757-14.976-29.571-28.632c-4.366-10.255-4.914-20.977-3.728-31.983
		c2.001-18.563,9.783-33.257,26.575-42.594c15.776-8.772,32.463-15.223,49.643-20.586c13.633-4.256,27.674-7.091,41.048-12.275
		c13.837-5.364,26.145-12.576,34.43-25.393c2.243-3.469,4.653-6.833,7.053-10.198c11.316-15.865,25.263-28.312,44.301-34.211
		C537.36,78.945,542.808,78.675,548.091,77.476z"/>
	<path class="st0" d="M428,201.964c-6.332-4.202-10.921-10.949-12.505-18.382c-0.791-3.71-0.856-7.538-0.727-11.329
		c0.1-2.93,0.318-5.872,1.009-8.722c1.847-7.623,7.006-14.126,13.188-18.954c1.814-1.416,3.737-2.717,5.847-3.634
		c2.962-1.286,6.198-1.777,9.396-2.228c3.499-0.493,7.029-0.954,10.556-0.744c7.455,0.443,14.64,3.996,19.669,9.516
		s7.89,12.922,8.083,20.388c0.215,8.287-2.743,16.414-7.073,23.482c-1.604,2.619-3.419,5.143-5.705,7.194
		c-5.748,5.158-13.789,6.785-21.462,7.664c-4.233,0.485-8.568,0.797-12.717-0.174c-4.149-0.971-8.14-3.411-10.055-7.217"/>
	<path class="st0" d="M570.507,317.53c-6.332-4.202-10.921-10.949-12.505-18.382c-0.791-3.71-0.856-7.538-0.727-11.329
		c0.1-2.93,0.318-5.872,1.009-8.722c1.847-7.623,7.006-14.126,13.188-18.954c1.814-1.416,3.737-2.717,5.847-3.634
		c2.962-1.286,6.198-1.777,9.396-2.228c3.499-0.493,7.029-0.954,10.556-0.744c7.455,0.443,14.64,3.996,19.669,9.516
		c5.03,5.52,7.89,12.922,8.083,20.388c0.215,8.287-2.743,16.414-7.073,23.482c-1.604,2.619-3.419,5.143-5.705,7.194
		c-5.748,5.158-13.789,6.785-21.462,7.664c-4.233,0.485-8.568,0.797-12.716-0.174c-4.149-0.971-8.14-3.411-10.055-7.217"/>
	<path class="st1" d="M700.683,355.336c-12.31-0.001-24.657-10.917-25.686-21.73c-1.38-14.501,10.422-23.651,21.706-24.224
		c11.332-0.575,22.701,6.694,26.874,17.239c4.15,10.486-0.706,21.045-12.098,26.279
		C707.893,354.546,704.173,355.608,700.683,355.336z"/>
	<g>
		<g>
			<path d="M236.631,311.532c-7.37-10.668-9.252-22.925-5.02-35.347c4.783-14.038,16.509-21.463,31.117-21.757
				c14.08-0.283,26.118,7.113,30.279,20.882c3.781,12.51-0.166,26.295-9.109,35.593c-1.167,1.214,0.695,3.077,1.849,1.849
				c9.744-10.378,13.864-25.843,9.03-39.473c-4.829-13.616-17.026-21.081-31.236-21.078c-14.683,0.003-27.232,6.687-33.056,20.482
				c-4.974,11.782-5.953,30.744,5.085,39.669C236.115,312.792,237.104,312.217,236.631,311.532L236.631,311.532z"/>
		</g>
	</g>
	<g>
		<g>
			<g>
				<g>
					<g>
						<path d="M248.627,279.284c-1.034,2.205-0.811,5.305-0.64,7.663c0.127-0.127,0.253-0.253,0.38-0.38
							c0.027,0.027,0.055,0.055,0.082,0.082c-0.125-0.312-0.707-0.317-0.653,0.088c0.008,0.062,0.016,0.123,0.025,0.185
							c0.021,0.157,0.096,0.3,0.262,0.343c0.061,0.016,0.122,0.032,0.183,0.048c0.221,0.058,0.503-0.114,0.481-0.366
							c-0.112-1.267-0.152-2.53-0.089-3.801c0.062-1.252,0.378-2.522,0.304-3.771C248.953,279.212,248.709,279.11,248.627,279.284
							L248.627,279.284z"/>
					</g>
				</g>
				<g>
					<g>
						<path d="M247.048,278.815c-0.401,2.83-0.636,5.683-0.913,8.527c0.236-0.098,0.471-0.195,0.707-0.293
							c-2.76-2.191-2.753-6.135,0.207-8.159c-0.214-0.165-0.429-0.329-0.643-0.494c-0.603,2.224-1.042,4.468-1.335,6.753
							c0.293,0,0.587,0,0.88,0c0.237-2.163,0.692-4.261,1.356-6.332c-0.285-0.079-0.571-0.157-0.856-0.236
							c-0.417,2.694-0.642,5.394-0.663,8.12c-0.004,0.579,0.882,0.577,0.898,0c0.064-2.304,0.26-4.589,0.598-6.869
							c0.085-0.569-0.784-0.819-0.875-0.241c-0.328,2.085-0.53,4.172-0.608,6.281c0.301-0.041,0.601-0.081,0.902-0.122
							c-0.494-1.498-0.589-2.923-0.266-4.472c-0.31-0.042-0.62-0.084-0.93-0.126c-0.082,1.38-0.297,2.718-0.64,4.056
							c0.318,0.043,0.636,0.086,0.953,0.129c-0.064-1.327-0.009-2.62,0.167-3.938c0.083-0.624-0.898-0.618-0.981,0
							c-0.099,0.736-0.273,1.304-0.552,1.972c0.323,0.044,0.646,0.087,0.969,0.131c0.039-1.053,0.245-1.975,0.678-2.936
							c-0.302-0.127-0.604-0.255-0.906-0.382c-0.025,0.368-0.157,0.698-0.395,0.99c-0.305,0.465,0.409,1.03,0.779,0.601
							c0.405-0.47,0.608-0.848,0.714-1.459c0.092-0.527-0.606-0.898-0.906-0.382c-0.918,1.579-1.188,3.215-0.867,5.011
							c0.319-0.088,0.637-0.176,0.956-0.264c-0.139-0.65-0.278-1.3-0.417-1.95c-0.318,0.088-0.637,0.176-0.955,0.263
							c0.295,1.235,0.629,2.455,1.006,3.668c0.144,0.465,0.813,0.475,0.954,0c0.314-1.062-0.437-1.673-0.358-2.817
							c0.064-0.927,0.696-3.118,1.246-3.87c-0.225,0.059-0.45,0.118-0.675,0.177c0.042,0.023,0.084,0.046,0.127,0.069
							c-0.076-0.186-0.151-0.371-0.227-0.557c-0.009,0.038-0.018,0.077-0.028,0.115c-0.149,0.617,0.802,0.88,0.951,0.262
							c0.009-0.038,0.018-0.077,0.028-0.115c0.05-0.208-0.032-0.45-0.227-0.557c-0.042-0.023-0.084-0.046-0.127-0.069
							c-0.252-0.138-0.513-0.044-0.675,0.177c-0.712,0.974-1.004,2.704-1.282,3.873c-0.106,0.446-0.195,0.844-0.116,1.303
							c0.091,0.534,0.576,1.182,0.409,1.746c0.318,0,0.636,0,0.954,0c-0.376-1.213-0.71-2.433-1.004-3.669
							c-0.148-0.622-1.088-0.358-0.955,0.263c0.139,0.65,0.278,1.3,0.417,1.95c0.134,0.629,1.067,0.357,0.956-0.264
							c-0.274-1.529-0.014-2.904,0.767-4.247c-0.302-0.127-0.604-0.255-0.906-0.382c-0.153,0.34-0.306,0.681-0.459,1.021
							c0.26,0.2,0.519,0.401,0.779,0.601c0.265-0.403,0.406-0.746,0.495-1.227c0.094-0.509-0.659-0.932-0.906-0.382
							c-0.504,1.119-0.767,2.21-0.809,3.436c-0.021,0.602,0.772,0.608,0.969,0.131c0.307-0.74,0.478-1.448,0.582-2.235
							c-0.327,0-0.654,0-0.981,0c-0.173,1.317-0.224,2.61-0.157,3.938c0.027,0.529,0.814,0.681,0.953,0.129
							c0.361-1.426,0.572-2.846,0.651-4.314c0.028-0.527-0.824-0.652-0.93-0.126c-0.346,1.708-0.262,3.315,0.294,4.968
							c0.164,0.486,0.885,0.408,0.902-0.122c0.063-2.028,0.251-4.035,0.564-6.04c-0.292-0.08-0.583-0.161-0.875-0.241
							c-0.347,2.36-0.558,4.725-0.622,7.11c0.299,0,0.599,0,0.898,0c0.017-2.647,0.219-5.267,0.621-7.884
							c0.085-0.553-0.678-0.793-0.856-0.236c-0.686,2.15-1.136,4.326-1.38,6.568c-0.061,0.566,0.809,0.551,0.88,0
							c0.282-2.206,0.719-4.374,1.299-6.52c0.094-0.348-0.318-0.716-0.643-0.494c-3.448,2.36-3.576,7.022-0.267,9.564
							c0.271,0.208,0.603-0.083,0.623-0.357c0.201-2.82,0.448-5.642,0.526-8.468C247.496,278.628,247.084,278.56,247.048,278.815
							L247.048,278.815z"/>
					</g>
				</g>
			</g>
			<g>
				<g>
					<path d="M248.551,275.558c2.793-5.688,7.85-9.988,14.58-8.839c5.381,0.919,9.032,4.576,9.951,9.91
						c0.203,1.177,2.241,0.919,2.105-0.285c-1.652-14.657-24.718-15.748-27.957-1.343
						C247.059,275.762,248.173,276.328,248.551,275.558L248.551,275.558z"/>
				</g>
			</g>
			<g>
				<g>
					<path d="M274.443,288.755c-0.87,4.091-4.005,6.784-8.005,7.74c-1.099,0.263-0.603,1.802,0.455,1.65
						c4.022-0.576,9.295-4.906,8.351-9.391C275.161,288.358,274.527,288.359,274.443,288.755L274.443,288.755z"/>
				</g>
			</g>
			<g>
				<g>
					<path d="M264.793,297.048c0.234-0.489,0.787-0.86,1.347-0.806c0.11,0.011,0.206,0.06,0.314,0.076
						c0.014-0.056,0.027-0.113,0.041-0.169c-0.051,0.101-0.106,0.2-0.166,0.297c-0.118,0.165-0.362,0.426-0.583,0.436
						c-0.129,0.006-0.244-0.039-0.302-0.16c0.081,0.17-0.005-0.007,0.11-0.083c0.06-0.04,0.122-0.115,0.196-0.132
						c0.03-0.007,0.164-0.008,0.179-0.015c0.055,0.062,0.069,0.069,0.041,0.019c0.002-0.026,0.004-0.052,0.006-0.079
						c0.079-0.024,0.19-0.182,0.391,0.002c0.198,0.181,0.216,0.755-0.373,0.629c-0.27-0.355-0.541-0.71-0.811-1.066
						c0.058-0.146,0.17-0.242,0.337-0.29c-1.42,0.033-1.425,2.243,0,2.21c1.053-0.024,1.912-0.841,1.873-1.92
						c-0.017-0.464-0.329-0.962-0.811-1.066c-1.13-0.243-2.299,0.451-2.298,1.691c0,1.034,0.857,1.937,1.904,1.902
						c1.1-0.037,1.975-1.046,1.91-2.13c-0.066-1.102-1.036-1.986-2.122-2.037c-2.334-0.108-3.649,3.142-1.41,4.319
						c0.9,0.473,2.026,0.32,2.773-0.37c0.646-0.596,1.225-1.721,0.774-2.585c-0.46-0.88-1.712-1.105-2.592-0.863
						c-0.858,0.236-1.539,0.896-1.685,1.787C263.748,297.18,264.515,297.628,264.793,297.048L264.793,297.048z"/>
				</g>
			</g>
			<g>
				<g>
					<g>
						<path d="M273.896,279.374c-0.074,1.253,0.242,2.516,0.304,3.771c0.063,1.271,0.023,2.534-0.089,3.801
							c-0.022,0.252,0.26,0.424,0.481,0.366c0.061-0.016,0.122-0.032,0.183-0.048c0.168-0.044,0.241-0.186,0.262-0.343
							c0.008-0.062,0.016-0.123,0.025-0.185c0.054-0.402-0.527-0.404-0.653-0.088c0.027-0.027,0.055-0.055,0.082-0.082
							c0.127,0.127,0.253,0.253,0.38,0.38c0.171-2.358,0.395-5.458-0.64-7.663C274.15,279.11,273.905,279.212,273.896,279.374
							L273.896,279.374z"/>
					</g>
				</g>
				<g>
					<g>
						<path d="M275.369,278.875c0.078,2.826,0.324,5.648,0.526,8.468c0.02,0.275,0.352,0.566,0.623,0.357
							c3.307-2.542,3.182-7.203-0.267-9.564c-0.324-0.222-0.737,0.144-0.643,0.494c0.581,2.147,1.017,4.314,1.299,6.52
							c0.07,0.55,0.941,0.567,0.88,0c-0.244-2.242-0.694-4.418-1.38-6.568c-0.177-0.556-0.941-0.318-0.856,0.236
							c0.402,2.616,0.604,5.238,0.621,7.884c0.299,0,0.599,0,0.898,0c-0.064-2.385-0.274-4.75-0.622-7.11
							c-0.292,0.08-0.583,0.161-0.875,0.241c0.313,2.006,0.501,4.012,0.564,6.04c0.016,0.526,0.737,0.613,0.902,0.122
							c0.557-1.657,0.641-3.256,0.294-4.968c-0.105-0.521-0.959-0.407-0.93,0.126c0.079,1.468,0.29,2.888,0.651,4.314
							c0.138,0.547,0.926,0.405,0.953-0.129c0.067-1.327,0.016-2.62-0.157-3.938c-0.327,0-0.654,0-0.981,0
							c0.104,0.79,0.275,1.495,0.582,2.235c0.196,0.473,0.99,0.476,0.969-0.131c-0.042-1.227-0.305-2.318-0.809-3.436
							c-0.245-0.545-1.001-0.132-0.906,0.382c0.089,0.481,0.23,0.824,0.495,1.227c0.26-0.2,0.519-0.401,0.779-0.601
							c-0.153-0.34-0.306-0.681-0.459-1.021c-0.302,0.127-0.604,0.255-0.906,0.382c0.775,1.333,1.04,2.721,0.767,4.247
							c-0.111,0.62,0.821,0.894,0.956,0.264c0.139-0.65,0.278-1.3,0.417-1.95c0.133-0.62-0.807-0.887-0.955-0.263
							c-0.294,1.235-0.628,2.456-1.004,3.669c0.318,0,0.636,0,0.954,0c-0.167-0.564,0.317-1.211,0.409-1.746
							c0.079-0.459-0.01-0.857-0.116-1.303c-0.278-1.169-0.571-2.899-1.282-3.873c-0.161-0.22-0.421-0.316-0.675-0.177
							c-0.042,0.023-0.084,0.046-0.127,0.069c-0.195,0.107-0.277,0.348-0.227,0.557c0.009,0.038,0.018,0.077,0.028,0.115
							c0.149,0.617,1.1,0.355,0.951-0.262c-0.009-0.038-0.018-0.077-0.028-0.115c-0.076,0.186-0.151,0.371-0.227,0.557
							c0.042-0.023,0.084-0.046,0.127-0.069c-0.225-0.059-0.45-0.118-0.675-0.177c0.37,0.507,0.542,1.496,0.723,2.095
							c0.147,0.487,0.506,1.253,0.523,1.774c0.034,1.037-0.658,1.803-0.358,2.817c0.14,0.474,0.809,0.466,0.954,0
							c0.377-1.213,0.711-2.433,1.006-3.668c-0.318-0.088-0.637-0.176-0.955-0.263c-0.139,0.65-0.278,1.3-0.417,1.95
							c0.319,0.088,0.637,0.176,0.956,0.264c0.322-1.796,0.052-3.429-0.867-5.011c-0.297-0.512-0.999-0.15-0.906,0.382
							c0.107,0.614,0.311,0.991,0.714,1.459c0.366,0.425,1.087-0.131,0.779-0.601c-0.238-0.293-0.37-0.623-0.395-0.99
							c-0.302,0.127-0.604,0.255-0.906,0.382c0.433,0.961,0.64,1.883,0.678,2.936c0.323-0.044,0.646-0.087,0.969-0.131
							c-0.28-0.669-0.454-1.236-0.552-1.972c-0.083-0.617-1.065-0.625-0.981,0c0.176,1.317,0.231,2.61,0.167,3.938
							c0.318-0.043,0.636-0.086,0.953-0.129c-0.343-1.338-0.557-2.676-0.64-4.056c-0.31,0.042-0.62,0.084-0.93,0.126
							c0.323,1.545,0.228,2.972-0.266,4.472c0.301,0.041,0.601,0.081,0.902,0.122c-0.078-2.109-0.28-4.197-0.608-6.281
							c-0.091-0.577-0.959-0.329-0.875,0.241c0.339,2.28,0.534,4.565,0.598,6.869c0.016,0.576,0.902,0.58,0.898,0
							c-0.021-2.726-0.246-5.427-0.663-8.12c-0.285,0.079-0.571,0.157-0.856,0.236c0.664,2.072,1.119,4.168,1.356,6.332
							c0.293,0,0.587,0,0.88,0c-0.294-2.285-0.732-4.529-1.335-6.753c-0.214,0.165-0.429,0.329-0.643,0.494
							c2.961,2.023,2.963,5.97,0.207,8.159c0.236,0.098,0.471,0.195,0.707,0.293c-0.277-2.844-0.512-5.697-0.913-8.527
							C275.774,278.563,275.362,278.626,275.369,278.875L275.369,278.875z"/>
					</g>
				</g>
			</g>
		</g>
		<path class="st2" d="M241.861,323.9l-1.418-10.353c0-6.702,4.066-12.186,10.768-12.186h21.095c6.117,0,9.657,4.958,9.657,11.075
			l-1.418,11.394c0,2.666-2.161,4.827-4.827,4.827h-29.1C243.991,328.658,241.861,326.528,241.861,323.9z"/>
		<path class="st3" d="M271.667,283.82c0,2.451-0.868,4.699-2.314,6.454c-1.863,2.26-4.684,3.702-7.841,3.702
			c-2.804,0-5.343-1.137-7.181-2.975c-1.838-1.838-3.37-4.447-3.37-7.251c0-2.66,0.782-5.137,2.455-6.947
			c1.855-2.007,5.147-3.139,8.096-3.139c3.119,0,5.91,1.406,7.773,3.619C270.771,279.049,271.667,281.33,271.667,283.82z"/>
	</g>
	<g>
		<g>
			<path d="M423.991,196.691c-7.37-10.668-9.252-22.925-5.02-35.347c4.783-14.038,16.509-21.463,31.117-21.757
				c14.08-0.283,26.118,7.113,30.279,20.882c3.781,12.51-0.166,26.295-9.108,35.593c-1.167,1.214,0.695,3.077,1.849,1.849
				c9.744-10.378,13.864-25.843,9.03-39.473c-4.829-13.616-17.026-21.081-31.236-21.078c-14.683,0.003-27.232,6.687-33.056,20.482
				c-4.974,11.782-5.953,30.744,5.085,39.669C423.476,197.951,424.465,197.376,423.991,196.691L423.991,196.691z"/>
		</g>
	</g>
	<g>
		<path class="st2" d="M429.222,209.059l-1.418-10.353c0-6.702,4.066-12.186,10.768-12.186h21.095c6.117,0,9.657,4.958,9.657,11.075
			l-1.418,11.394c0,2.666-2.161,4.827-4.827,4.827h-29.1C431.352,213.817,429.222,211.687,429.222,209.059z"/>
		<path class="st3" d="M459.028,168.979c0,2.451-0.868,4.699-2.314,6.454c-1.863,2.26-4.684,3.702-7.841,3.702
			c-2.804,0-5.343-1.137-7.181-2.975c-1.838-1.838-3.37-4.447-3.37-7.251c0-2.66,0.782-5.137,2.455-6.947
			c1.855-2.007,5.147-3.139,8.096-3.139c3.119,0,5.91,1.406,7.773,3.619C458.132,164.208,459.028,166.489,459.028,168.979z"/>
		<path class="st4" d="M445.752,191.136c0.299,0.5,0.598,1.001,0.836,1.532c0.03,0.067,0.059,0.145,0.027,0.21
			c-0.034,0.07-0.121,0.094-0.197,0.109c-1.34,0.264-2.727,0.289-4.075,0.072c-0.124-0.02-0.254-0.045-0.347-0.13
			c-0.096-0.088-0.131-0.221-0.161-0.347c-0.407-1.707-0.608-3.464-0.598-5.219c0.001-0.177,0.017-0.38,0.16-0.484
			c0.091-0.066,0-0.036,0.108-0.065c0.491-0.131,1.152-0.199,1.564,0.035c0.33,0.188,0.597,0.799,0.786,1.116
			C444.487,189.022,445.12,190.079,445.752,191.136z"/>
		<path class="st4" d="M448.774,191.136c-0.299,0.5-0.598,1.001-0.836,1.532c-0.03,0.067-0.059,0.145-0.027,0.21
			c0.034,0.07,0.121,0.094,0.197,0.109c1.34,0.264,2.727,0.289,4.075,0.072c0.124-0.02,0.254-0.045,0.347-0.13
			c0.096-0.088,0.131-0.221,0.161-0.347c0.407-1.707,0.608-3.464,0.598-5.219c-0.001-0.177-0.017-0.38-0.16-0.484
			c-0.091-0.066,0-0.036-0.108-0.065c-0.491-0.131-1.152-0.199-1.564,0.035c-0.33,0.188-0.597,0.799-0.786,1.116
			C450.039,189.022,449.406,190.079,448.774,191.136z"/>
	</g>
	<g>
		<g>
			<path d="M566.662,312.093c-7.37-10.668-9.252-22.925-5.02-35.347c4.783-14.038,16.509-21.463,31.117-21.757
				c14.08-0.283,26.118,7.113,30.279,20.882c3.781,12.51-0.166,26.295-9.109,35.593c-1.167,1.214,0.695,3.077,1.849,1.849
				c9.744-10.378,13.864-25.843,9.03-39.473c-4.829-13.616-17.026-21.081-31.236-21.078c-14.683,0.003-27.232,6.687-33.056,20.482
				c-4.974,11.782-5.953,30.744,5.085,39.669C566.147,313.353,567.135,312.778,566.662,312.093L566.662,312.093z"/>
		</g>
	</g>
	<g>
		<path class="st2" d="M571.893,324.461l-1.418-10.353c0-6.702,4.066-12.186,10.768-12.186h21.095c6.117,0,9.657,4.958,9.657,11.075
			l-1.418,11.394c0,2.666-2.161,4.827-4.827,4.827h-29.1C574.023,329.219,571.893,327.089,571.893,324.461z"/>
		<path class="st3" d="M601.699,284.381c0,2.451-0.868,4.699-2.314,6.454c-1.863,2.26-4.684,3.702-7.841,3.702
			c-2.804,0-5.343-1.137-7.181-2.975c-1.838-1.838-3.37-4.447-3.37-7.251c0-2.66,0.782-5.137,2.455-6.947
			c1.855-2.007,5.147-3.139,8.096-3.139c3.119,0,5.91,1.406,7.773,3.619C600.803,279.61,601.699,281.891,601.699,284.381z"/>
		<path class="st4" d="M589.074,304.64c0.464,0.352,0.999,0.526,1.262,0.719c0.059,0.043,0.145,0.456,0.123,0.526
			c-0.024,0.074-0.285,0.329-0.358,0.355c-1.29,0.448-2.66,0.665-4.026,0.638c-0.125-0.003-0.258-0.009-0.361-0.08
			c-0.107-0.073-0.161-0.201-0.208-0.321c-0.64-1.634-0.54-2.133-0.774-3.873c-0.024-0.175-0.036-0.378,0.091-0.501
			c0.081-0.078-0.005-0.036,0.098-0.08c0.468-0.198,1.113-0.358,1.554-0.183c0.353,0.14,0.702,0.708,0.934,0.996
			C588.182,303.793,588.105,303.904,589.074,304.64z"/>
		<path class="st4" d="M592.136,304.64c-0.464,0.352-0.999,0.526-1.262,0.719c-0.059,0.043-0.145,0.456-0.123,0.526
			c0.024,0.074,0.285,0.329,0.358,0.355c1.29,0.448,2.66,0.665,4.026,0.638c0.125-0.003,0.258-0.009,0.361-0.08
			c0.107-0.073,0.161-0.201,0.208-0.321c0.64-1.634,0.54-2.133,0.774-3.873c0.024-0.175,0.036-0.378-0.091-0.501
			c-0.081-0.078,0.005-0.036-0.098-0.08c-0.468-0.198-1.113-0.358-1.554-0.183c-0.353,0.14-0.702,0.708-0.934,0.996
			C593.028,303.793,593.105,303.904,592.136,304.64z"/>
		<path class="st4" d="M590.436,308.824c0.087,0.048,0.185,0.081,0.284,0.074c0.089-0.006,0.172-0.044,0.246-0.094
			c0.203-0.14,0.326-0.367,0.44-0.586c0.209-0.399,0.418-0.799,0.627-1.198c0.02-0.037,0.04-0.078,0.033-0.12
			c-0.007-0.043-0.04-0.076-0.072-0.104c-0.491-0.443-2.121-1.022-2.478-0.103C589.311,307.221,589.974,308.57,590.436,308.824z"/>
		<path class="st0" d="M589.39,312.729c-1.157,3.924-2.416,7.825-3.425,11.791c-0.507,1.993,1.453,3.206,2.921,4.046
			c0.466,0.267,0.996,0.469,1.531,0.411c0.761-0.082,1.558-0.669,2.135-1.143c0.606-0.499,1.103-1.202,1.17-2.002
			c0.087-1.04-0.136-2.079-0.348-3.091c-0.487-2.32-0.992-4.695-1.414-7.05c-0.216-1.207-0.413-2.418-0.579-3.633
			c-0.085-0.622-0.161-1.246-0.229-1.87c-0.044-0.409,0.071-1.088-0.317-1.359c-0.297-0.207-1.245,3.22-1.341,3.548
			C589.459,312.495,589.425,312.612,589.39,312.729z"/>
	</g>
	<g>
		<g>
			<path d="M711.016,197.252c-7.37-10.668-9.252-22.925-5.02-35.347c4.783-14.038,16.509-21.463,31.117-21.757
				c14.08-0.283,26.118,7.113,30.279,20.882c3.781,12.51-0.166,26.295-9.109,35.593c-1.167,1.214,0.695,3.077,1.849,1.849
				c9.744-10.378,13.864-25.843,9.03-39.473c-4.829-13.616-17.026-21.081-31.236-21.078c-14.683,0.003-27.232,6.687-33.056,20.482
				c-4.974,11.782-5.953,30.744,5.085,39.669C710.5,198.512,711.489,197.937,711.016,197.252L711.016,197.252z"/>
		</g>
	</g>
	<g>
		<path class="st2" d="M716.247,209.62l-1.418-10.353c0-6.702,4.066-12.186,10.768-12.186h21.095c6.117,0,9.657,4.958,9.657,11.075
			l-1.418,11.394c0,2.666-2.161,4.827-4.827,4.827h-29.1C718.376,214.378,716.247,212.248,716.247,209.62z"/>
		<path class="st3" d="M746.052,169.54c0,2.451-0.868,4.699-2.314,6.454c-1.863,2.26-4.684,3.702-7.841,3.702
			c-2.804,0-5.343-1.137-7.181-2.975c-1.838-1.838-3.37-4.447-3.37-7.251c0-2.66,0.782-5.137,2.455-6.947
			c1.855-2.007,5.147-3.139,8.096-3.139c3.119,0,5.91,1.406,7.773,3.619C745.156,164.769,746.052,167.05,746.052,169.54z"/>
		<path class="st4" d="M733.428,190.1c0.464,0.337,0.999,0.504,1.262,0.689c0.059,0.041,0.145,0.437,0.123,0.504
			c-0.024,0.071-0.285,0.316-0.358,0.34c-1.29,0.43-2.66,0.638-4.026,0.612c-0.125-0.002-0.258-0.009-0.361-0.077
			c-0.107-0.07-0.161-0.192-0.208-0.308c-0.64-1.567-0.54-2.045-0.774-3.713c-0.024-0.168-0.036-0.363,0.091-0.481
			c0.081-0.075-0.005-0.035,0.098-0.077c0.468-0.19,1.113-0.343,1.554-0.175c0.353,0.134,0.702,0.679,0.933,0.954
			C732.536,189.288,732.459,189.394,733.428,190.1z"/>
		<path class="st4" d="M736.49,190.1c-0.464,0.337-0.999,0.504-1.262,0.689c-0.059,0.041-0.145,0.437-0.123,0.504
			c0.024,0.071,0.285,0.316,0.358,0.34c1.29,0.43,2.66,0.638,4.026,0.612c0.125-0.002,0.258-0.009,0.361-0.077
			c0.107-0.07,0.161-0.192,0.208-0.308c0.64-1.567,0.54-2.045,0.774-3.713c0.024-0.168,0.036-0.363-0.091-0.481
			c-0.081-0.075,0.005-0.035-0.098-0.077c-0.468-0.19-1.113-0.343-1.554-0.175c-0.353,0.134-0.702,0.679-0.934,0.954
			C737.382,189.288,737.459,189.394,736.49,190.1z"/>
		<path class="st0" d="M734.789,194.111c0.087,0.046,0.185,0.078,0.284,0.071c0.089-0.006,0.172-0.042,0.246-0.09
			c0.203-0.134,0.326-0.352,0.44-0.562c0.209-0.383,0.418-0.766,0.627-1.148c0.02-0.036,0.04-0.075,0.033-0.115
			c-0.007-0.041-0.04-0.072-0.072-0.1c-0.491-0.424-2.121-0.98-2.478-0.098C733.665,192.574,734.328,193.868,734.789,194.111z"/>
		<path class="st0" d="M733.744,197.855c-1.157,3.762-1.841,5.126-2.85,8.928c-0.507,1.911,2.199,5.106,3.629,6.134
			c0.14,0.101,0.868,0.694,1.402,0.639c0.761-0.079-0.436-0.722,0.14-1.176c0.606-0.478,1.564-2.325,1.63-3.092
			c0.087-0.997,0.244-0.863,0.031-1.833c-0.487-2.225-0.992-4.501-1.414-6.759c-0.216-1.157-0.413-2.318-0.579-3.483
			c-0.085-0.597-0.161-1.194-0.229-1.793c-0.044-0.392,0.071-1.043-0.317-1.303c-0.297-0.199-1.245,3.087-1.341,3.402
			C733.813,197.631,733.778,197.743,733.744,197.855z"/>
		<path class="st5" d="M736.789,213.465c-1.46,0.041-2.616-0.471-3.564-1.321c-3.275-2.934-5.468-7.461-7.64-11.22
			c1.172-0.274,2.316-0.657,3.411-1.141c-1.188-0.969-2.376-1.938-3.563-2.908c-0.146-0.119-0.297-0.244-0.377-0.412
			c-0.092-0.193-0.078-0.415-0.06-0.627c0.284-3.242,1.188-6.434,2.652-9.369c0.048-0.096,0.104-0.199,0.207-0.24
			c0.099-0.04,0.213-0.009,0.314,0.026c0.707,0.245,1.446,0.624,1.494,1.389c0.06,0.967,0.112,1.932,0.203,2.897
			c0.183,1.929,0.46,3.85,0.828,5.755c0.737,3.81,1.841,7.554,3.295,11.169C734.812,209.51,735.746,211.514,736.789,213.465z"/>
		<path class="st5" d="M733.678,213.465c1.46,0.041,2.616-0.471,3.564-1.321c3.275-2.934,5.468-7.461,7.64-11.22
			c-1.172-0.274-2.316-0.657-3.411-1.141c1.188-0.969,2.376-1.938,3.563-2.908c0.146-0.119,0.297-0.244,0.377-0.412
			c0.092-0.193,0.078-0.415,0.06-0.627c-0.284-3.242-1.188-6.434-2.652-9.369c-0.048-0.096-0.104-0.199-0.207-0.24
			c-0.099-0.04-0.213-0.009-0.314,0.026c-0.707,0.245-1.446,0.624-1.494,1.389c-0.06,0.967-0.112,1.932-0.203,2.897
			c-0.183,1.929-0.46,3.85-0.828,5.755c-0.737,3.81-1.841,7.554-3.295,11.169C735.655,209.51,734.721,211.514,733.678,213.465z"/>
	</g>
	<g>
		<path class="st6" d="M218.052,42.162c-2.269-0.721-4.776,0.754-5.994,2.8c-1.218,2.046-1.44,4.516-1.575,6.893
			c-0.398,7.043-0.277,14.105-0.146,21.158c0.283,15.286,0.609,30.571,0.978,45.855c0.04,1.64,0.226,3.552,1.613,4.427
			c0.728,0.459,1.632,0.512,2.492,0.55c18.8,0.829,37.644,0.636,56.423-0.578c0.797-0.052,1.64-0.121,2.29-0.585
			c0.882-0.63,1.16-1.798,1.343-2.867c0.89-5.22,1.017-10.536,1.143-15.83c0.45-19.011,0.901-38.023,1.351-57.034
			c0.041-1.747-0.025-3.746-1.361-4.871c-1.026-0.864-2.485-0.923-3.826-0.938c-18.609-0.217-37.222-0.088-55.826,0.385"/>
		<g>
			<path d="M218.319,41.193c-7.61-1.409-9.018,6.865-9.276,12.584c-0.513,11.375,0.02,22.813,0.258,34.19
				c0.118,5.649,0.246,11.298,0.398,16.946c0.136,5.027-0.405,10.594,0.486,15.547c0.442,2.458,1.473,3.893,3.939,4.472
				c5.115,1.201,11.597,0.434,16.862,0.505c11.679,0.157,23.364-0.078,35.027-0.71c2.534-0.137,6.736,0.439,8.904-1.261
				c2.426-1.902,2.185-7.129,2.396-9.779c0.878-11.044,0.71-22.231,0.973-33.303c0.133-5.572,0.265-11.145,0.398-16.717
				c0.141-5.901,0.911-12.179,0.417-18.057c-0.264-3.143-1.521-4.928-4.634-5.595c-5.516-1.181-12.013-0.392-17.637-0.406
				c-13.294-0.033-26.586,0.155-39.875,0.495c-1.825,0.047-1.833,2.885,0,2.842c17.614-0.421,35.222-0.232,52.836-0.454
				c3.307-0.042,6.278,1.107,7.044,4.457c0.395,1.729-0.079,4.12-0.119,5.9c-0.103,4.589-0.216,9.178-0.324,13.767
				c-0.209,8.85-0.417,17.7-0.626,26.55c-0.194,8.214,0.068,16.607-1.133,24.753c-0.479,3.252-1.634,3.867-4.733,4.355
				c-1.888,0.297-3.921,0.224-5.831,0.317c-4.537,0.221-9.076,0.384-13.617,0.487c-8.758,0.199-17.521,0.176-26.277-0.068
				c-1.946-0.054-3.892-0.115-5.837-0.205c-0.65-0.03-2.362,0.165-2.918-0.152c-1.366-0.78-2.569-3.425-2.879-4.785
				c-0.957-4.2-0.201-9.625-0.278-13.955c-0.177-9.969-0.394-19.937-0.574-29.906c-0.087-4.821-0.183-9.643-0.118-14.465
				c0.062-4.6-1.233-16.995,6.481-16.377C219.171,43.257,219.436,41.399,218.319,41.193L218.319,41.193z"/>
		</g>
	</g>
	<g>
		<g>
			<path class="st0" d="M222.229,56.48c12.866,0.856,26.192-0.848,39.086-1.18c1.349-0.035,1.344-2.164,0-2.094
				c-12.96,0.68-26.431,0.04-39.272,1.903C221.225,55.228,221.492,56.431,222.229,56.48L222.229,56.48z"/>
		</g>
	</g>
	<g>
		<g>
			<path class="st0" d="M231.59,77c10.609-0.656,21.129-2.188,31.772-2.441c1.389-0.033,1.338-2.272,0-2.127
				c-10.628,1.154-21.394,1.511-31.957,3.198C230.63,75.753,230.808,77.048,231.59,77L231.59,77z"/>
		</g>
	</g>
	<g>
		<g>
			<path class="st0" d="M224.476,97.693c14.262,0.366,28.551,0.037,42.819,0.273c1.434,0.024,1.433-2.272,0-2.227
				c-14.266,0.453-28.561,0.341-42.819,0.923C223.815,96.689,223.81,97.676,224.476,97.693L224.476,97.693z"/>
		</g>
	</g>
	<g>
		<g>
			<path class="st0" d="M241.715,112.623c2.796,1.072,6.741,0.997,9.688,0.793c1.626-0.112,1.631-2.669,0-2.542
				c-1.717,0.133-3.41,0.368-5.135,0.424c-1.521,0.05-3.053-0.089-4.553,0.187C241.085,111.601,241.23,112.437,241.715,112.623
				L241.715,112.623z"/>
		</g>
	</g>
	<g>
		<path class="st0" d="M140.893,114.455c31.555,0.248,63.114-0.201,94.656-1.347c0.575-0.021,1.21-0.016,1.641,0.465
			c0.452,0.505,0.515,1.352,0.545,2.113c0.336,8.627,0.427,17.269,0.273,25.904c-5.643,0.967-11.354,1.072-17.048,1.176
			c-19.197,0.349-38.394,0.699-57.592,1.048c-6.791,0.124-13.599,0.246-20.36-0.568c-0.986-9.446-1.426-18.983-1.316-28.509"/>
		<g>
			<path d="M140.893,114.937c17.75,0.428,35.497,0.323,53.249,0.062c9.203-0.135,18.406-0.278,27.606-0.528
				c1.972-0.054,3.943-0.11,5.915-0.169c1.634-0.049,6.53-1.051,7.886-0.251c2.736,1.615,1.455,9.847,1.493,12.59
				c0.032,2.325,0.049,4.651,0.045,6.976c-0.001,0.984,0.437,5.145-0.093,5.979c-1.749,2.753-11.323,1.858-14.136,1.913
				c-8.907,0.174-17.815,0.299-26.723,0.461c-17.549,0.319-35.646,1.924-53.128,0.048c0.409,0.409,0.818,0.818,1.227,1.227
				c-0.958-9.46-1.206-19.006-1.387-28.509c-0.028-1.489-2.259-1.485-2.31,0c-0.33,9.571,0.296,18.989,1.244,28.509
				c0.071,0.717,0.509,1.148,1.227,1.227c15.874,1.73,32.228,0.372,48.163,0.082c15.54-0.283,31.773,0.712,47.137-1.877
				c0.471-0.079,0.84-0.631,0.828-1.087c-0.158-5.977-0.039-11.958-0.178-17.937c-0.06-2.574,0.996-8.596-1.023-10.654
				c-2.024-2.063-6.84-0.663-9.285-0.576c-5.914,0.212-11.83,0.395-17.745,0.573c-23.331,0.704-46.672,0.759-70.011,0.977
				C140.272,113.979,140.272,114.922,140.893,114.937L140.893,114.937z"/>
		</g>
	</g>
	<g>
		<g>
			<path d="M153.797,122.531c2.062,0.156,4.167-0.118,6.231-0.221c1.859-0.093,3.741-0.005,5.576-0.316
				c0.989-0.168,0.606-1.495-0.216-1.599c-3.533-0.447-8.324,0.019-11.73,1.109C153.082,121.687,153.211,122.487,153.797,122.531
				L153.797,122.531z"/>
		</g>
	</g>
	<g>
		<g>
			<path d="M159.353,121.706c-0.51,4.397-0.194,9.076-0.212,13.508c-0.006,1.47,2.346,1.461,2.277,0
				c-0.215-4.491-0.111-9.241-0.824-13.676C160.471,120.775,159.428,121.063,159.353,121.706L159.353,121.706z"/>
		</g>
	</g>
	<g>
		<g>
			<path d="M172.524,127.221c0.096,2.089,0.044,4.142-0.198,6.219c-0.152,1.305,2.186,1.302,2.027,0
				c-0.258-2.119-0.526-4.241-0.85-6.351C173.418,126.532,172.498,126.664,172.524,127.221L172.524,127.221z"/>
		</g>
	</g>
	<g>
		<g>
			<path d="M184.7,125.43c-3.735-0.445-6.84,3.411-5.64,7.002c1.106,3.31,6.805,3.862,8.914,1.261
				c0.608-0.749,0.072-2.205-1.051-1.805c-1.705,0.608-4.706,2.638-5.995,0.122c-1.338-2.612,1.392-4.983,3.772-5.251
				C185.556,126.663,185.552,125.531,184.7,125.43L184.7,125.43z"/>
		</g>
	</g>
	<g>
		<g>
			<path d="M191.717,121.137c-0.832,3.893-0.752,8.541-0.432,12.492c0.106,1.307,2.022,1.343,2.061,0
				c0.116-4.006,0.155-8.545-0.555-12.492C192.694,120.597,191.829,120.616,191.717,121.137L191.717,121.137z"/>
		</g>
	</g>
	<g>
		<g>
			<path d="M196.426,125.408c-1.344,0.7-2.466,1.643-3.595,2.643c-0.724,0.641-1.388,1.319-0.756,2.29
				c0.622,0.954,2.05,1.747,3.023,2.273c1.31,0.709,2.718,1.195,4.177,1.484c1.368,0.271,1.954-1.826,0.579-2.099
				c-1.125-0.223-2.213-0.544-3.242-1.058c-0.899-0.449-2.207-1.064-2.778-1.901c0.037,0.281,0.073,0.561,0.11,0.841
				c-0.19,0.262-0.173,0.274,0.051,0.035c0.181-0.171,0.363-0.341,0.546-0.509c0.305-0.281,0.615-0.556,0.922-0.835
				c0.679-0.619,1.299-1.265,1.881-1.977C197.874,125.945,197.222,124.993,196.426,125.408L196.426,125.408z"/>
		</g>
	</g>
	<g>
		<g>
			<path d="M205.346,133.307c2.181-1.546,4.802-5.09,4.051-7.956c-0.915-3.492-4.793-1.26-5.832,0.887
				c-1.206,2.49-0.802,6.031,1.774,7.487c2.858,1.616,6.622,0.327,8.431-2.222c0.773-1.09-1.009-2.485-1.866-1.44
				c-1.031,1.258-2.279,2.232-3.987,2.255c-2.343,0.032-3.342-2.04-2.904-4.132c0.152-0.728,0.532-1.785,1.213-2.179
				c0.241-0.353,0.531-0.335,0.871,0.055c0.558,0.035,0.741,0.276,0.551,0.723c0.027,0.387-0.148,0.843-0.264,1.208
				c-0.54,1.694-1.572,3.084-2.753,4.387C204.206,132.85,204.771,133.715,205.346,133.307L205.346,133.307z"/>
		</g>
	</g>
	<g>
		<g>
			<path d="M215.788,122.768c0.027,1.883,0.102,3.753,0.226,5.632c0.08,1.213,0.097,2.655,1.077,3.526
				c1.872,1.664,4.999-0.228,5.789-2.182c0.353-0.873-0.865-1.345-1.444-0.841c-0.634,0.551-1.19,1.318-1.997,1.634
				c-1.798,0.703-1.788-1.272-1.924-2.45c-0.212-1.828-0.463-3.634-0.763-5.449C216.659,122.086,215.78,122.226,215.788,122.768
				L215.788,122.768z"/>
		</g>
	</g>
	<g>
		<g>
			<path d="M217.284,126.546c1.12-0.552,2.269-1.052,3.384-1.613c1.102-0.554,0.095-2.317-0.973-1.664
				c-1.107,0.677-2.135,1.518-3.105,2.377C216.077,126.099,216.728,126.82,217.284,126.546L217.284,126.546z"/>
		</g>
	</g>
	<g>
		<g>
			<path d="M172.564,121.302c-0.497,0.135-0.853,0.506-0.992,0.999c-0.151,0.537-0.046,0.967,0.179,1.468
				c0.283,0.629,1.174,0.829,1.753,0.575c0.627-0.276,1.012-0.971,0.813-1.656C174.094,121.916,173.498,121.049,172.564,121.302
				L172.564,121.302z"/>
		</g>
	</g>
	<g>
		<g>
			<path class="st0" d="M130,315.196c39.757,0.248,79.519-0.201,119.26-1.347c0.724-0.021,1.525-0.016,2.067,0.465
				c0.57,0.505,0.649,1.352,0.686,2.113c0.423,8.627,0.538,17.269,0.344,25.904c-7.11,0.967-14.305,1.072-21.479,1.176
				c-24.187,0.349-48.374,0.699-72.561,1.048c-8.556,0.124-17.134,0.246-25.652-0.568c-1.242-9.446-1.796-18.983-1.658-28.509"/>
			<g>
				<path d="M130,315.678c24.517,0.487,49.032,0.28,73.55,0.001c11.926-0.136,23.851-0.342,35.774-0.624
					c2.434-0.058,7.712-1.151,9.936-0.25c2.824,1.145,1.972,6.203,2.042,8.592c0.183,6.311,0.254,12.627-0.073,18.933
					c0.376-0.376,0.752-0.752,1.129-1.129c-19.673,2.242-39.942,1.325-59.721,1.61c-19.882,0.287-40.14,1.669-59.972-0.048
					c0.408,0.408,0.815,0.815,1.223,1.223c-1.178-9.43-1.606-19.011-1.725-28.509c-0.019-1.489-2.262-1.485-2.31,0
					c-0.308,9.608,0.37,18.985,1.59,28.509c0.09,0.703,0.49,1.158,1.223,1.223c20.158,1.774,40.74,0.374,60.952,0.082
					c19.53-0.282,39.665,0.772,59.041-1.872c0.477-0.065,0.834-0.642,0.829-1.088c-0.087-6.977-0.03-13.951-0.281-20.926
					c-0.108-2.985,0.722-7.123-2.588-8.438c-1.861-0.739-5.327,0.048-7.318,0.106c-3.312,0.097-6.624,0.189-9.936,0.277
					c-6.956,0.184-13.912,0.345-20.868,0.502C185,314.47,157.499,314.494,130,314.714C129.379,314.719,129.379,315.666,130,315.678
					L130,315.678z"/>
			</g>
		</g>
		<g>
			<g>
				<g>
					<path d="M144.401,326.337c3.744-0.582,7.681-1.915,11.273-3.115c0.91-0.304,0.545-1.663-0.398-1.442
						c-3.709,0.868-7.836,1.952-11.266,3.63C143.452,325.684,143.878,326.419,144.401,326.337L144.401,326.337z"/>
				</g>
			</g>
			<g>
				<g>
					<path d="M149.991,324.183c-0.811,1.364-0.28,3.047-0.151,4.572c0.166,1.969,0.275,3.937,0.377,5.91
						c0.068,1.305,2.067,1.324,2.044,0c-0.037-2.105-0.215-4.21-0.427-6.303c-0.153-1.51,0.007-3.124-1.046-4.282
						C150.564,323.836,150.151,323.914,149.991,324.183L149.991,324.183z"/>
				</g>
			</g>
			<g>
				<g>
					<path d="M158.667,334.956c1.449-0.491,2.669-1.723,3.676-2.837c0.83-0.919,1.839-1.982,1.661-3.319
						c-0.449-3.367-4.536-2.615-6.101-0.628c-1.601,2.033-2.287,5.524,0.216,7.145c2.301,1.491,5.888,0.489,7.158-1.936
						c0.408-0.779-0.431-1.721-1.239-1.239c-1.195,0.713-2.134,1.96-3.674,1.848c-2.047-0.149-2.079-2.195-1.325-3.685
						c0.36-0.711,0.986-1.586,1.817-1.779c0.741-0.172,1.356,0.506,1.273,1.268c-0.024,0.218-0.405,0.605-0.532,0.776
						c-0.997,1.339-2.388,2.27-3.415,3.552C157.901,334.473,158.146,335.132,158.667,334.956L158.667,334.956z"/>
				</g>
			</g>
			<g>
				<g>
					<path d="M172.681,326.113c-3.59-1.467-8.193,3.417-6.305,6.934c1.96,3.653,8.31,1.638,9.707-1.482
						c0.417-0.93-0.75-2.103-1.54-1.188c-1.301,1.507-3.019,3.078-5.217,2.55c-3.861-0.927,0.372-5.829,2.971-5.42
						C173.223,327.653,173.545,326.466,172.681,326.113L172.681,326.113z"/>
				</g>
			</g>
			<g>
				<g>
					<path d="M177.906,320.617c-0.563,3.983-0.276,7.977-0.37,11.98c-0.033,1.42,1.989,1.335,2.152,0
						c0.16-1.31,0.349-3.28,1.476-4.177c2.24-1.783,2.716,1.951,2.764,3.508c0.05,1.634,2.532,1.372,2.252-0.305
						c-0.373-2.233-1.11-7.123-4.52-6.168c-2.868,0.804-4.095,4.525-4.124,7.142c0.705-0.095,1.409-0.191,2.114-0.286
						c-0.646-3.818-0.503-7.72-0.813-11.568C178.797,320.254,177.986,320.051,177.906,320.617L177.906,320.617z"/>
				</g>
			</g>
			<g>
				<g>
					<path d="M188.837,326.245c-0.33,0.954-0.132,2.035-0.128,3.034c0.005,1.124-0.036,2.246-0.107,3.368
						c-0.063,0.992,1.461,1.168,1.712,0.232c0.441-1.649,0.498-3.91,2.037-4.993c2.006-1.411,2.207,3.001,2.115,4.022
						c-0.104,1.154,1.78,1.404,2.024,0.274c0.479-2.224-0.558-6.8-3.532-6.632c-3.308,0.187-4.459,4.437-4.357,7.097
						c0.581,0,1.162,0,1.743,0c0.04-1.203,0.044-2.405-0.004-3.608c-0.04-0.998,0.006-2.032-0.471-2.928
						C189.627,325.654,188.987,325.811,188.837,326.245L188.837,326.245z"/>
				</g>
			</g>
			<g>
				<g>
					<path d="M198.737,326.049c-0.061,2.103-0.12,4.193-0.247,6.293c0.18-0.313,0.36-0.627,0.539-0.94
						c-0.017,0.008-0.035,0.016-0.052,0.023c0.42,0.054,0.841,0.109,1.261,0.163c-0.015-0.017-0.03-0.034-0.044-0.051
						c-0.488-0.562-1.523-0.268-1.68,0.444c-0.101,0.457,0.006,0.777,0.295,1.132c0.773,0.95,1.956-0.128,1.82-1.06
						c-0.292-2-0.516-3.996-0.745-6.004C199.802,325.332,198.759,325.293,198.737,326.049L198.737,326.049z"/>
				</g>
			</g>
			<g>
				<g>
					<path d="M199.164,321.705c-0.004,0.003-0.007,0.006-0.011,0.009c0-0.128,0-0.256,0-0.383c0.31-0.193,0.38-0.265,0.21-0.217
						c-0.06,0.015-0.12,0.026-0.181,0.033c0.188,0,0.376,0,0.564,0c-0.027-0.011-0.055-0.023-0.083-0.034
						c-0.368-0.152-0.86,0.077-1.077,0.367c-0.261,0.35-0.264,0.75-0.08,1.138c0.014,0.029,0.028,0.058,0.041,0.088
						c0.358,0.756,1.44,0.622,1.833,0c0.402-0.636,0.449-1.76-0.494-1.94C199.359,320.665,198.864,321.195,199.164,321.705
						L199.164,321.705z"/>
				</g>
			</g>
			<g>
				<g>
					<path d="M208.672,325.461c-2.672,0.479-5.105,4.032-3.382,6.505c1.986,2.85,5.818,1.576,7.927-0.353
						c0.859-0.786-0.312-2.373-1.269-1.644c-1.3,0.989-3.34,2.578-4.994,1.371c-2.028-1.48,0.742-4.114,2.198-4.74
						C209.844,326.303,209.315,325.346,208.672,325.461L208.672,325.461z"/>
				</g>
			</g>
			<g>
				<g>
					<path d="M215.612,325.267c-0.432,2.24-0.179,4.597-0.483,6.865c-0.182,1.361,2.299,1.374,2.127,0
						c-0.285-2.269-0.013-4.622-0.426-6.865C216.718,324.662,215.728,324.667,215.612,325.267L215.612,325.267z"/>
				</g>
			</g>
			<g>
				<g>
					<path d="M215.329,321.326c-0.112,0.171,0.122-0.024-0.095,0.031c0.186,0,0.372,0,0.558,0c-0.029-0.005-0.057-0.009-0.086-0.014
						c0.158,0.092,0.317,0.185,0.475,0.277c-0.02-0.025-0.04-0.049-0.059-0.074c0.094,0.161,0.188,0.323,0.282,0.484
						c-0.007-0.025-0.014-0.05-0.022-0.075c-0.257-0.885-1.467-1.038-1.944-0.254c-0.013,0.022-0.027,0.044-0.04,0.066
						c-0.295,0.485-0.129,1.235,0.394,1.502c0.704,0.359,1.345,0.089,1.774-0.524c0.351-0.501,0.421-1.108-0.024-1.576
						C216.184,320.793,215.593,320.922,215.329,321.326L215.329,321.326z"/>
				</g>
			</g>
			<g>
				<g>
					<path d="M225.56,324.925c-3.078-0.452-7.729,3.403-5.378,6.629c1.006,1.381,2.896,1.173,4.205,0.353
						c1.796-1.126,2.709-3.284,2.633-5.343c-0.532,0-1.063,0-1.595,0c0.043,1.64,0.28,3.733,1.335,5.074
						c0.719,0.914,1.96,1.192,2.79,0.275c0.79-0.872-0.372-1.942-1.257-1.257c-0.727,0.562-1.269-3.904-1.273-4.092
						c-0.016-0.873-1.366-1.116-1.567-0.212c-0.2,0.899-0.469,1.784-0.953,2.575c-0.254,0.416-0.555,0.846-0.941,1.155
						c-0.745,0.598-1.179,0.969-1.713-0.043c-1.118-2.118,2.081-3.429,3.713-3.815C226.171,326.078,226.232,325.024,225.56,324.925
						L225.56,324.925z"/>
				</g>
			</g>
			<g>
				<g>
					<path d="M231.292,325.084c-0.058,1.943,0.064,4.152-0.542,6.009c-0.378,1.159,1.595,1.67,1.801,0.496
						c0.345-1.963,0.049-4.646,2.466-5.347c3.074-0.891,3.364,2.601,2.817,4.674c-0.348,1.318,1.738,1.883,2.035,0.561
						c0.701-3.116-0.201-7.495-4.224-7.347c-3.913,0.143-5.369,4.079-4.895,7.459c0.6-0.165,1.201-0.331,1.801-0.496
						c-0.578-1.869-0.417-4.073-0.445-6.009C232.099,324.559,231.308,324.56,231.292,325.084L231.292,325.084z"/>
				</g>
			</g>
		</g>
	</g>
	<g>
		<g>
			<path class="st0" d="M317.202,200.656c39.757,0.248,79.519-0.201,119.26-1.347c0.724-0.021,1.525-0.016,2.067,0.465
				c0.57,0.505,0.649,1.352,0.686,2.113c0.423,8.627,0.538,17.269,0.344,25.904c-7.11,0.967-14.305,1.072-21.479,1.176
				c-24.187,0.349-48.374,0.699-72.561,1.048c-8.556,0.124-17.134,0.246-25.652-0.568c-1.242-9.446-1.796-18.983-1.658-28.509"/>
			<g>
				<path d="M317.202,201.138c24.517,0.487,49.032,0.28,73.55,0.001c11.926-0.136,23.851-0.342,35.774-0.624
					c2.434-0.058,7.712-1.151,9.936-0.25c2.824,1.145,1.972,6.203,2.042,8.592c0.183,6.311,0.254,12.627-0.073,18.933
					c0.376-0.376,0.752-0.752,1.129-1.129c-19.673,2.242-39.942,1.325-59.721,1.61c-19.882,0.287-40.14,1.669-59.972-0.048
					c0.408,0.408,0.815,0.815,1.223,1.223c-1.178-9.43-1.606-19.011-1.725-28.509c-0.019-1.489-2.262-1.485-2.31,0
					c-0.308,9.608,0.37,18.985,1.59,28.509c0.09,0.703,0.49,1.158,1.223,1.223c20.158,1.774,40.74,0.374,60.952,0.082
					c19.53-0.282,39.665,0.772,59.041-1.872c0.477-0.065,0.834-0.642,0.829-1.088c-0.087-6.977-0.03-13.951-0.281-20.926
					c-0.108-2.985,0.722-7.123-2.588-8.438c-1.861-0.739-5.327,0.048-7.319,0.106c-3.312,0.097-6.624,0.189-9.936,0.277
					c-6.956,0.184-13.912,0.345-20.868,0.502c-27.494,0.618-54.995,0.642-82.495,0.862
					C316.582,200.179,316.582,201.126,317.202,201.138L317.202,201.138z"/>
			</g>
		</g>
		<g>
			<g>
				<g>
					<path d="M343.411,209.488c0.145-5.588-7.884-6.412-10.123-1.815c-1.248,2.561,0.183,4.528,2.336,5.885
						c0.957,0.603,2.127,1.025,2.927,1.845c1.478,1.516,0.561,3.505-1.444,3.699c-2.407,0.233-4.482-1.145-5.892-2.984
						c-0.842-1.098-2.445-0.196-1.865,1.09c1.735,3.848,9.65,6.691,11.984,1.816c1.066-2.225-0.357-4.443-2.123-5.777
						c-1.702-1.287-6.455-2.825-2.961-5.792c2.485-2.11,4.817,0.294,5.923,2.368C342.492,210.424,343.394,210.122,343.411,209.488
						L343.411,209.488z"/>
				</g>
			</g>
			<g>
				<g>
					<path d="M347.832,212.644c-0.82,2.138-0.903,7.422,2.154,7.9c3.233,0.505,5.312-4.391,6.024-6.812
						c-0.696-0.094-1.392-0.188-2.088-0.283c-0.292,2.211-0.496,7.64,2.951,7.172c1.343-0.182,0.782-2.25-0.565-2.051
						c-0.398,0.059-0.334-4.56-0.259-5.121c0.162-1.215-1.766-1.396-2.088-0.283c-0.26,0.898-0.584,1.761-1.029,2.584
						c-0.412,0.761-1.148,2.334-1.988,2.641c-0.309,0.426-0.607,0.39-0.894-0.107c-0.406-0.177-0.625-0.481-0.656-0.913
						c-0.217-0.482-0.25-1.103-0.293-1.615c-0.083-0.98,0.034-1.95,0.103-2.927C349.263,211.989,348.095,211.96,347.832,212.644
						L347.832,212.644z"/>
				</g>
			</g>
			<g>
				<g>
					<path d="M360.323,211.394c-0.398,1.966-0.312,4.026-0.352,6.027c-0.041,2.027-0.344,4.12,0.053,6.115
						c0.163,0.82,1.57,0.861,1.698,0c0.301-2.015-0.059-4.08-0.107-6.115c-0.047-2.004,0.082-4.046-0.235-6.027
						C361.295,210.86,360.426,210.882,360.323,211.394L360.323,211.394z"/>
				</g>
			</g>
			<g>
				<g>
					<path d="M361,214.606c0.944-1.973,4.695-2.958,4.958,0.031c0.224,2.544-2.568,3.675-4.607,3.648
						c-1.143-0.015-1.186,1.483-0.252,1.861c3.785,1.53,8.116-3.471,6.441-7.052c-0.721-1.541-2.306-2.586-4.032-2.257
						c-1.599,0.305-3.62,1.71-3.561,3.485C359.965,214.842,360.745,215.14,361,214.606L361,214.606z"/>
				</g>
			</g>
			<g>
				<g>
					<path d="M371.399,218.734c1.827-1.052,7.596-4.746,5.645-7.464c-2.123-2.957-6.361,1.054-7.34,3.031
						c-1.518,3.067-0.239,5.692,3.206,5.988c3.507,0.301,8.216-1.262,9.841-4.634c0.47-0.975-0.622-1.738-1.435-1.108
						c-1.35,1.047-2.474,2.253-4.066,2.969c-1.617,0.727-6.473,2.017-6.326-1.19c0.061-1.348,2.835-5.101,3.961-3.5
						c0.846,1.202-3.174,4.086-4.14,4.79C370.085,218.096,370.66,219.16,371.399,218.734L371.399,218.734z"/>
				</g>
			</g>
			<g>
				<g>
					<path d="M384.009,210.677c-0.256,2.694,0.158,5.473-0.358,8.147c0.659,0.089,1.318,0.178,1.977,0.268
						c-0.035-1.459-0.319-2.81,0.45-4.152c0.658-1.149,1.749-1.514,2.657-2.36c0.544-0.507,0.101-1.377-0.582-1.404
						c-1.613-0.064-3.087,1.423-3.859,2.721c-0.983,1.653-1.066,3.622-0.642,5.463c0.291,1.267,2.202,0.727,1.941-0.535
						c-0.553-2.669-0.178-5.454-0.47-8.147C385.045,209.966,384.077,209.957,384.009,210.677L384.009,210.677z"/>
				</g>
			</g>
			<g>
				<g>
					<path d="M391.669,211.867c0.238,2.573,1.799,4.91,2.48,7.367c0.217,0.783,1.277,0.893,1.694,0.221
						c0.736-1.185,1.163-2.555,1.668-3.85c0.537-1.376,1.309-2.792,1.544-4.252c0.173-1.077-1.094-1.638-1.746-0.736
						c-0.809,1.119-1.221,2.554-1.724,3.833c-0.548,1.392-1.205,2.806-1.436,4.291c0.516-0.136,1.033-0.273,1.549-0.409
						c-0.995-0.808-1.327-2.522-1.748-3.672c-0.376-1.027-0.664-2.154-1.275-3.066C392.405,211.19,391.616,211.292,391.669,211.867
						L391.669,211.867z"/>
				</g>
			</g>
			<g>
				<g>
					<path d="M402.323,211.411c-0.156,2.626-0.1,5.275-0.417,7.889c0.696-0.094,1.391-0.188,2.087-0.282
						c-0.055-0.148-0.109-0.296-0.164-0.445c-0.309-0.837-1.43-0.863-1.731,0c-0.052,0.148-0.103,0.296-0.155,0.445
						c-0.515,1.48,2.314,1.932,2.049,0c-0.344-2.511-0.273-5.079-0.39-7.606C403.564,210.586,402.371,210.59,402.323,211.411
						L402.323,211.411z"/>
				</g>
			</g>
			<g>
				<g>
					<path d="M402.338,205.542c-0.43,0.458-0.524,0.916-0.431,1.529c0.087,0.568,0.801,0.882,1.308,0.743
						c0.608-0.167,0.83-0.738,0.743-1.308c-0.009,0.088-0.019,0.177-0.028,0.265C404.41,205.786,403.17,204.655,402.338,205.542
						L402.338,205.542z"/>
				</g>
			</g>
			<g>
				<g>
					<path d="M410.53,211.215c-1.478,0.331-3.09,1.315-2.486,3.084c0.265,0.777,0.841,1.454,1.326,2.103
						c1.182,1.583-1.141,0.326-1.665-0.23c-0.837-0.888-2.346,0.262-1.696,1.309c0.944,1.521,3.778,2.767,5.23,1.139
						c0.562-0.631,0.603-1.566,0.26-2.31c-0.563-1.223-2.939-2.843-0.567-3.638C411.853,212.365,411.484,211.001,410.53,211.215
						L410.53,211.215z"/>
				</g>
			</g>
			<g>
				<g>
					<path d="M416.819,211.943c-1.516,1.154-2.268,3.013-2.066,4.913c0.181,1.709,1.168,3.566,3.169,3.066
						c2.021-0.506,3.487-2.861,3.339-4.879c-0.147-2.008-2.115-3.799-4.166-3.145c-1.089,0.348-0.968,2.181,0.283,2.089
						c3.452-0.253,0.968,5.138-0.688,4.196c-0.739-0.42-0.646-2.251-0.517-2.895c0.189-0.943,0.692-1.749,1.341-2.444
						C417.935,212.393,417.36,211.532,416.819,211.943L416.819,211.943z"/>
				</g>
			</g>
			<g>
				<g>
					<path d="M422.881,211.879c-0.049,2.143,0.117,4.469-0.395,6.561c-0.346,1.412,1.88,1.765,1.992,0.27
						c0.097-1.293,0.084-2.681,0.732-3.849c0.621-1.119,1.508-1.391,2.676-1.637c0.899-0.189,0.825-1.515,0-1.747
						c-1.545-0.434-3.131,0.544-4.061,1.736c-1.2,1.536-1.458,3.604-1.373,5.497c0.664-0.09,1.328-0.18,1.992-0.27
						c-0.545-2.089-0.416-4.415-0.496-6.561C423.918,211.197,422.896,211.193,422.881,211.879L422.881,211.879z"/>
				</g>
			</g>
		</g>
	</g>
	<g>
		<g>
			<path class="st0" d="M440.632,316.487c45.572,0.248,91.149-0.201,136.703-1.347c0.83-0.021,1.748-0.016,2.369,0.465
				c0.653,0.505,0.744,1.352,0.786,2.113c0.485,8.627,0.616,17.269,0.395,25.904c-8.15,0.967-16.397,1.072-24.621,1.176
				c-27.725,0.349-55.449,0.699-83.174,1.048c-9.808,0.124-19.639,0.246-29.404-0.568c-1.423-9.446-2.059-18.983-1.9-28.509"/>
			<g>
				<path d="M440.632,316.968c27.079,0.479,54.156,0.288,81.236,0.037c13.208-0.122,26.415-0.306,39.621-0.565
					c3.301-0.065,6.603-0.134,9.904-0.205c0.87-0.019,5.224-0.577,5.942-0.128c2.053,1.285,2.327,4.51,2.41,6.588
					c0.277,6.977,0.357,13.952,0.012,20.926c0.376-0.376,0.753-0.753,1.129-1.129c-22.529,2.266-45.565,1.322-68.188,1.608
					c-22.821,0.288-46.264,2.111-69.01-0.082c0.42,0.42,0.84,0.84,1.259,1.259c-1.109-9.494-1.92-18.943-2.005-28.509
					c-0.013-1.489-2.264-1.485-2.31,0c-0.3,9.652,0.187,19.318,1.841,28.844c0.097,0.561,0.698,0.895,1.214,0.925
					c22.952,1.327,46.034,0.345,69.01,0.056c22.574-0.284,45.748,0.866,68.188-1.842c0.604-0.073,1.132-0.458,1.129-1.129
					c-0.034-7.642-0.026-15.281-0.388-22.917c-0.186-3.923-0.084-6.174-4.292-6.533c-7.406-0.632-15.339,0.402-22.779,0.566
					c-7.594,0.167-15.188,0.318-22.782,0.462c-30.378,0.576-60.761,0.585-91.142,0.805
					C440.012,316.009,440.012,316.957,440.632,316.968L440.632,316.968z"/>
			</g>
		</g>
		<g>
			<g>
				<path d="M482.621,333.579c0.671,0.175,1.367,0.108,2.046-0.002c0.752-0.122,1.404-0.246,1.707-1.015
					c0.13-0.331-0.089-0.727-0.367-0.901c-0.609-0.38-1.215-0.052-1.832,0.133c-0.58,0.174-1.163,0.305-1.715,0.554
					C481.918,332.594,482.096,333.443,482.621,333.579L482.621,333.579z"/>
			</g>
		</g>
		<g>
			<g>
				<g>
					<path d="M463.696,324.228c-2.019-2.04-5.784,1.02-4.692,3.516c0.796,1.819,3.168,2.255,3.958,3.978
						c0.868,1.894-1.19,2.424-2.759,2.19c-1.476-0.219-2.575-1.028-3.562-2.106c-0.811-0.886-2.449,0.322-1.696,1.309
						c1.949,2.556,6.826,4.575,9.383,1.606c1.042-1.21,0.867-2.873,0.009-4.132c-0.426-0.624-1.001-1.079-1.59-1.537
						c-0.414-0.322-1.452-0.82-1.67-1.315c-0.506-1.151,0.237-3.178,1.996-2.441C463.692,325.557,464.11,324.647,463.696,324.228
						L463.696,324.228z"/>
				</g>
			</g>
			<g>
				<g>
					<path d="M467.617,322.122c-0.44,3.865-0.511,7.755-1.083,11.61c-0.193,1.303,1.629,1.566,1.794,0.243
						c0.128-1.028,1.084-6.238,3.468-3.374c0.762,0.915,0.561,2.755,0.46,3.86c-0.123,1.346,2.091,1.384,2.127,0
						c0.063-2.421-0.463-6.434-3.579-6.554c-3.306-0.128-4.172,3.493-4.301,6.068c0.609,0,1.218,0,1.826,0
						c0.065-3.949,0.501-7.903,0.435-11.852C468.751,321.367,467.698,321.405,467.617,322.122L467.617,322.122z"/>
				</g>
			</g>
			<g>
				<g>
					<path d="M476.426,328.833c-0.41,0.893-0.468,1.891-0.616,2.856c-0.145,0.943-0.457,1.908-0.246,2.85
						c0.157,0.703,1.29,0.899,1.61,0.21c0.41-0.884,0.328-1.859,0.389-2.823c0.062-0.976,0.228-1.98,0.017-2.942
						C477.47,328.479,476.653,328.338,476.426,328.833L476.426,328.833z"/>
				</g>
			</g>
			<g>
				<g>
					<path d="M477.145,323.822c-0.012-0.02-0.023-0.039-0.035-0.059c-0.523-0.882-1.935-0.509-1.935,0.524
						c0,1.031,1.41,1.41,1.935,0.524c0.012-0.02,0.023-0.039,0.035-0.059C477.312,324.471,477.312,324.104,477.145,323.822
						L477.145,323.822z"/>
				</g>
			</g>
			<g>
				<g>
					<path d="M485.619,328.883c-1.185-1.543-3.162-0.944-3.908,0.759c-0.559,1.276-0.434,2.903-0.505,4.258
						c-0.104,1.983-0.383,4.044-0.2,6.022c0.077,0.829,1.377,1.16,1.567,0.212c0.304-1.521,0.296-3.081,0.377-4.628
						c0.045-0.852-0.129-6.595,1.805-5.759C485.249,329.96,486.056,329.451,485.619,328.883L485.619,328.883z"/>
				</g>
			</g>
			<g>
				<g>
					<path d="M488.112,324.943c-0.247,1.738-0.272,3.49-0.184,5.242c0.07,1.404-0.019,3.286,0.667,4.57
						c1.28,2.398,3.926,0.636,4.915-1.022c0.437-0.733-0.569-1.501-1.174-0.906c-0.858,0.844-2.168,1.529-2.863,0.087
						c-0.334-0.692-0.253-1.973-0.302-2.728c-0.11-1.703-0.041-3.399-0.031-5.103C489.144,324.513,488.197,324.345,488.112,324.943
						L488.112,324.943z"/>
				</g>
			</g>
			<g>
				<g>
					<path d="M489.089,330.948c0.922-0.24,1.971-0.546,2.738-1.128c0.353-0.268,0.556-0.672,0.364-1.11
						c-0.166-0.377-0.626-0.669-1.049-0.515c-0.996,0.364-1.847,1.068-2.619,1.781C488.085,330.38,488.545,331.089,489.089,330.948
						L489.089,330.948z"/>
				</g>
			</g>
		</g>
		<g>
			<g>
				<path d="M498.767,330.991c0.796,0.115,1.665,0.303,2.469,0.197c1.044-0.137,1.046-1.491,0-1.628
					c-0.805-0.106-1.673,0.082-2.469,0.197C498.156,329.846,498.156,330.903,498.767,330.991L498.767,330.991z"/>
			</g>
		</g>
		<g>
			<g>
				<g>
					<path d="M508.024,324.687c-0.372,2.723-0.15,5.513-0.501,8.256c-0.138,1.076,1.751,1.143,1.728,0
						c-0.053-2.706,0.26-5.584-0.201-8.256C508.963,324.188,508.094,324.172,508.024,324.687L508.024,324.687z"/>
				</g>
			</g>
			<g>
				<g>
					<path d="M506.504,325.128c0.904-0.031,1.791-0.21,2.665-0.438c1.075-0.281,0.612-1.979-0.459-1.666
						c-0.865,0.253-1.718,0.554-2.508,0.99C505.689,324.297,505.91,325.149,506.504,325.128L506.504,325.128z"/>
				</g>
			</g>
			<g>
				<g>
					<path d="M506.772,335.168c0.775-0.034,1.53-0.093,2.29-0.252c0.728-0.153,1.639-0.207,1.984-0.958
						c0.184-0.399,0.134-0.933-0.304-1.16c-0.76-0.394-1.32-0.019-2.056,0.26c-0.702,0.265-1.389,0.559-2.086,0.837
						C505.973,334.146,505.981,335.203,506.772,335.168L506.772,335.168z"/>
				</g>
			</g>
			<g>
				<g>
					<path d="M513.974,328.887c-0.015,1.675,0.183,3.744-0.37,5.335c0.501,0.138,1.001,0.276,1.502,0.414
						c0.263-1.431-0.046-3.507,1.596-4.223c0.929-0.405,1.672,0.213,1.904,1.119c0.25,0.978-0.261,2.092-0.636,2.972
						c-0.497,1.167,1.177,1.883,1.61,0.679c0.505-1.405,0.962-2.927,0.441-4.399c-0.394-1.114-1.346-2.011-2.561-2.073
						c-2.884-0.147-4.154,3.354-3.883,5.719c0.128,1.123,1.78,0.899,1.53-0.207c-0.374-1.655-0.053-3.64-0.085-5.335
						C515.008,328.214,513.98,328.211,513.974,328.887L513.974,328.887z"/>
				</g>
			</g>
			<g>
				<g>
					<path d="M526.162,329.279c-2.925-1.412-5.742,2.968-3.946,5.361c2.161,2.88,6.43,0.614,7.512-2.087
						c0.277-0.692-0.659-1.336-1.245-0.957c-1.22,0.79-2.125,2.494-3.749,2.512c-2.604,0.029-1.085-3.867,1.114-3.667
						C526.456,330.495,526.707,329.542,526.162,329.279L526.162,329.279z"/>
				</g>
			</g>
			<g>
				<g>
					<path d="M532.307,322.919c-0.74,3.532-0.57,7.329-1.646,10.772c-0.406,1.298,1.758,1.873,2.02,0.557
						c0.209-1.051,0.481-3.168,1.345-3.913c0.942-0.813,1.626-0.237,1.898,0.674c0.288,0.963,0.246,1.775,0.19,2.745
						c-0.071,1.224,1.751,1.178,1.878,0c0.218-2.023-0.189-6.16-3.034-6.161c-2.804-0.001-3.944,3.97-4.297,6.098
						c0.673,0,1.347,0,2.02,0c-0.525-3.465,0.461-7.171,0.687-10.628C533.407,322.459,532.432,322.322,532.307,322.919
						L532.307,322.919z"/>
				</g>
			</g>
			<g>
				<g>
					<path d="M545.256,329.402c-1.573-3.844-6.771,0.618-6.389,3.535c0.22,1.681,1.895,2.695,3.458,1.98
						c1.799-0.822,2.884-3.208,3.422-4.993c-0.505-0.068-1.011-0.137-1.516-0.205c0,1.639,0.362,3.377,1.224,4.789
						c0.521,0.854,1.782,0.104,1.334-0.78c-0.67-1.324-1.045-2.511-1.015-4.009c0.016-0.773-1.056-1.041-1.438-0.389
						c-0.484,0.824-0.958,1.635-1.574,2.371c-0.227,0.271-0.463,0.54-0.707,0.796c-0.452,0.475-0.552,0.779-1.113,0.337
						c-0.785-0.618,0.183-1.849,0.758-2.378c0.637-0.587,1.745-1.187,2.487-0.431C544.605,330.45,545.508,330.017,545.256,329.402
						L545.256,329.402z"/>
				</g>
			</g>
			<g>
				<g>
					<path d="M547.708,327.947c0.128,1.744,0.523,4.113-0.063,5.786c-0.446,1.272,1.783,1.764,1.926,0.261
						c0.204-2.151,0.494-3.832,2.39-5.094c0.739-0.492,0.296-1.851-0.64-1.519c-2.639,0.937-3.474,4.121-3.71,6.613
						c0.642-0.087,1.284-0.174,1.926-0.261c-0.322-1.003-0.239-2.192-0.357-3.234c-0.103-0.903-0.247-1.801-0.41-2.695
						C548.66,327.209,547.663,327.34,547.708,327.947L547.708,327.947z"/>
				</g>
			</g>
			<g>
				<g>
					<path d="M558.627,328.896c-1.697-3.38-6.485,1.524-5.326,4.294c0.546,1.305,2.016,1.769,3.285,1.257
						c2.088-0.842,2.777-3.533,2.954-5.525c-0.535,0-1.07,0-1.605,0c0.114,2.21-0.012,4.527-0.591,6.668
						c-0.293,1.084-0.675,2.16-1.293,3.107c-1.564,2.396-2.917,1.139-4.203-0.687c-0.582-0.827-2.165-0.357-1.762,0.743
						c1.049,2.859,4.208,5.223,6.619,2.191c2.653-3.335,2.498-8.022,2.834-12.021c0.076-0.902-1.377-1.09-1.576-0.213
						c-0.185,0.816-0.731,3.042-1.66,3.438c-1.634-0.581-1.899-1.315-0.795-2.204c0.58-0.801,1.338-0.985,2.271-0.552
						C558.154,329.887,558.917,329.473,558.627,328.896L558.627,328.896z"/>
				</g>
			</g>
			<g>
				<g>
					<path d="M562.993,334.348c1.254-0.703,2.112-1.873,2.746-3.147c0.51-1.024,1.304-2.554,0.864-3.713
						c-0.956-2.516-4.487-0.272-5.264,1.206c-1.115,2.12-0.563,5.327,1.726,6.437c2.544,1.234,6.219-0.424,7.989-2.295
						c0.603-0.637-0.164-1.679-0.946-1.227c-2.097,1.211-8.221,4.168-7.595-0.919c0.098-0.794,0.657-2.255,1.678-2.301
						c1.026-0.046,0.306,0.867,0.042,1.449c-0.582,1.286-1.497,2.345-2.184,3.565C561.71,334.008,562.389,334.686,562.993,334.348
						L562.993,334.348z"/>
				</g>
			</g>
		</g>
	</g>
	<g>
		<g>
			<path class="st0" d="M616.4,201.49c35.13,0.248,70.263-0.201,105.379-1.347c0.64-0.021,1.347-0.016,1.826,0.465
				c0.504,0.505,0.573,1.352,0.606,2.113c0.374,8.627,0.475,17.269,0.304,25.904c-6.282,0.967-12.64,1.072-18.979,1.176
				c-21.372,0.349-42.744,0.699-64.115,1.048c-7.56,0.124-15.139,0.246-22.666-0.568c-1.097-9.446-1.587-18.983-1.465-28.509"/>
			<g>
				<path d="M616.4,201.972c22.205,0.49,44.407,0.274,66.613-0.028c10.936-0.149,21.87-0.373,32.803-0.678
					c2.289-0.064,6.287-1.137,7.433,1.455c0.844,1.91,0.197,5.857,0.246,7.967c0.139,5.977,0.219,11.966-0.107,17.937
					c0.376-0.376,0.752-0.752,1.128-1.128c-17.413,2.23-35.448,1.327-52.98,1.613c-17.484,0.286-35.351,1.641-52.781-0.054
					c0.408,0.408,0.816,0.816,1.225,1.225c-1.063-9.444-1.382-19.011-1.535-28.509c-0.024-1.489-2.26-1.485-2.31,0
					c-0.318,9.591,0.337,18.982,1.395,28.509c0.079,0.711,0.501,1.153,1.225,1.225c17.749,1.754,35.947,0.372,53.752,0.081
					c17.272-0.282,35.199,0.744,52.308-1.874c0.474-0.072,0.837-0.636,0.828-1.088c-0.126-6.311-0.036-12.622-0.208-18.933
					c-0.067-2.475,0.93-8.002-1.349-9.907c-0.919-0.768-2.221-0.563-3.302-0.556c-3.309,0.021-6.631,0.224-9.939,0.326
					c-6.295,0.195-12.59,0.366-18.886,0.531c-25.182,0.663-50.372,0.703-75.56,0.922C615.779,201.013,615.779,201.958,616.4,201.972
					L616.4,201.972z"/>
			</g>
		</g>
		<g>
			<g>
				<g>
					<path d="M634.595,221.701c0.404-4.73,0.642-9.496,0.809-14.24c-0.441,0.183-0.881,0.365-1.322,0.548
						c1.732,2.219,2.751,4.669,3.786,7.259c0.475,1.19,0.641,1.602,1.819,2.085c0.536,0.22,1.174-0.242,1.314-0.746
						c0.903-3.253,2.231-6.288,4.023-9.148c-0.643-0.084-1.286-0.168-1.929-0.252c0.773,4.55,1.562,9.158,1.92,13.762
						c0.092,1.187,1.997,1.653,2.236,0.303c0.03-0.167,0.059-0.334,0.089-0.501c0.161-0.909-0.918-1.734-1.653-0.962
						c-0.113,0.119-0.226,0.237-0.339,0.356c0.634,0.167,1.268,0.335,1.902,0.502c-0.85-4.642-1.414-9.353-2.121-14.02
						c-0.146-0.966-1.484-0.934-1.929-0.252c-1.965,3.014-3.385,6.156-4.26,9.645c0.438-0.249,0.876-0.497,1.314-0.746
						c-0.774-0.255-1.796-3.165-2.22-3.91c-0.845-1.485-1.807-2.88-2.736-4.312c-0.432-0.666-1.383-0.372-1.443,0.391
						c-0.368,4.726-0.588,9.5-0.557,14.24C633.304,222.546,634.525,222.521,634.595,221.701L634.595,221.701z"/>
				</g>
			</g>
			<g>
				<g>
					<path d="M656.11,213.28c-3.089,0.153-6.278,3.946-4.605,7.042c0.808,1.494,2.525,1.258,3.726,0.38
						c1.629-1.192,2.612-3.337,3.122-5.23c-0.661-0.089-1.322-0.179-1.983-0.268c-0.178,1.587-0.383,4.318,1.189,5.347
						c1.387,0.908,3.052,0.07,3.997-1.06c0.609-0.728-0.167-1.973-1.077-1.396c-0.603,0.382-1.348,1.239-2.094,0.285
						c-0.393-0.503-0.099-2.415-0.033-2.907c0.168-1.244-1.584-1.83-1.947-0.537c-0.249,0.888-0.554,1.737-1.016,2.538
						c-0.37,0.642-2.079,3.32-2.662,1.065c-0.499-1.932,2.08-3.615,3.555-3.968C656.996,214.399,656.856,213.243,656.11,213.28
						L656.11,213.28z"/>
				</g>
			</g>
			<g>
				<g>
					<path d="M663.66,213.443c-0.742,1.833-0.59,4.2-0.507,6.142c0.56,0,1.12,0,1.68,0c0.15-1.554,1.151-4.362,3.15-4.304
						c2.614,0.075,1.068,3.575,1.138,4.946c0.031,0.611,0.737,0.912,1.191,0.493c2.221-2.046,1.286-7.049-2.019-7.355
						c-3.046-0.282-5.769,3.658-5.111,6.444c0.214,0.906,1.723,0.733,1.65-0.223c-0.151-1.991,0.217-4.015,0.034-5.978
						C664.802,212.897,663.922,212.796,663.66,213.443L663.66,213.443z"/>
				</g>
			</g>
			<g>
				<g>
					<path d="M677.408,213.391c-1.622,0.28-2.801,1.517-3.525,2.945c-0.549,1.084-1.234,2.74-0.447,3.879
						c0.855,1.239,2.443,0.669,3.289-0.245c1.287-1.392,1.877-3.304,2.072-5.145c-0.529,0-1.057,0-1.586,0
						c0.078,1.795,1.005,7.268,4.034,5.211c1.081-0.735-0.076-2.285-1.108-1.435c-0.893,0.735-1.352-3.458-1.34-3.776
						c0.032-0.877-1.391-1.1-1.557-0.211c-0.181,0.968-0.479,1.878-0.955,2.745c-0.199,0.361-0.425,0.702-0.679,1.026
						c-0.269,0.343-0.643,0.89-0.781,0.27c-0.131-0.591,0.561-1.69,0.863-2.168c0.509-0.805,1.207-1.39,2.096-1.734
						C678.632,214.425,678.31,213.235,677.408,213.391L677.408,213.391z"/>
				</g>
			</g>
			<g>
				<g>
					<path d="M689.984,213.051c-2.395-0.239-7.083,2.48-5.171,5.471c2.126,3.325,4.965-2.287,5.398-3.837
						c-0.582-0.079-1.165-0.158-1.747-0.236c0.018,2.244-0.172,4.442-0.765,6.613c-0.175,0.641-0.48,2.145-0.981,2.604
						c-2.138,1.962-2.399-1.635-2.417-2.53c-0.016-0.834-1.37-1.096-1.518-0.205c-0.384,2.312,0.6,6.855,3.979,5.356
						c1.503-0.667,2.039-2.473,2.43-3.917c0.697-2.578,1.024-5.255,1.051-7.921c0.01-1.011-1.468-1.196-1.747-0.236
						c-0.168,0.714-0.433,1.393-0.794,2.036c-0.29,0.974-0.701,0.935-1.233-0.117c0-1.267,2.727-1.776,3.515-1.751
						C690.853,214.408,690.819,213.134,689.984,213.051L689.984,213.051z"/>
				</g>
			</g>
			<g>
				<g>
					<path d="M694.25,220.442c1.23-0.885,2.294-1.893,3.197-3.115c0.727-0.984,1.854-2.435,1.786-3.749
						c-0.058-1.122-1.055-1.731-2.105-1.543c-1.269,0.228-2.387,1.223-3.023,2.301c-1.203,2.038-0.993,5.434,1.618,6.251
						c2.963,0.928,5.047-1.841,5.902-4.273c0.347-0.987-1.062-1.437-1.595-0.672c-0.771,1.108-1.576,2.819-3.041,3.099
						c-2.072,0.395-2.018-2.256-1.276-3.465c0.216-0.352,0.92-1.333,1.407-1.316c0.561,0.02-0.387,1.445-0.587,1.778
						c-0.824,1.375-1.9,2.592-3.079,3.672C692.915,219.905,693.638,220.883,694.25,220.442L694.25,220.442z"/>
				</g>
			</g>
			<g>
				<g>
					<path d="M704.384,213.274c-0.256,2.142-0.291,4.494-1.019,6.533c0.557,0.154,1.115,0.307,1.672,0.461
						c0.311-1.213,0.495-2.315,1.254-3.355c0.799-1.094,1.838-1.577,2.966-2.24c0.923-0.543,0.255-1.743-0.679-1.61
						c-3.043,0.435-5.623,4.26-5.213,7.205c0.152,1.094,1.841,0.638,1.672-0.461c-0.323-2.093,0.115-4.431,0.261-6.533
						C705.34,212.678,704.452,212.704,704.384,213.274L704.384,213.274z"/>
				</g>
			</g>
		</g>
	</g>
	<g>
		<g>
			<path d="M549.766,224.173c3.072,3.919,7.509,8.235,12.016,10.519c0.339,0.172,0.807,0.24,1.141,0
				c3.361-2.42,5.988-7.558,8.453-10.86c0.644-0.863-0.257-1.848-1.109-1.932c-6.559-0.65-13.027-1.158-19.508,0.361
				c-1.673,0.392-0.96,2.911,0.707,2.564c6.239-1.3,12.499-0.899,18.801-0.356c-0.37-0.644-0.739-1.288-1.109-1.932
				c-1.243,1.71-2.489,3.416-3.725,5.131c-1.264,1.753-2.39,4.646-4.743,3.822c-3.562-1.247-7.098-5.868-9.832-8.409
				C550.11,222.385,549.166,223.408,549.766,224.173L549.766,224.173z"/>
		</g>
	</g>
	<g>
		<g>
			<path class="st6" d="M238.38,225.49c3.072,3.919,7.509,8.235,12.016,10.519c0.339,0.172,0.807,0.24,1.141,0
				c3.361-2.42,5.988-7.558,8.453-10.86c0.644-0.862-0.257-1.848-1.109-1.932c-6.559-0.65-13.027-1.158-19.508,0.361
				c-1.673,0.392-0.96,2.911,0.707,2.564c6.239-1.3,12.499-0.899,18.801-0.357c-0.37-0.644-0.739-1.288-1.109-1.932
				c-1.243,1.71-2.489,3.416-3.725,5.131c-1.264,1.753-2.39,4.646-4.743,3.822c-3.562-1.247-7.098-5.868-9.832-8.409
				C238.725,223.702,237.78,224.725,238.38,225.49L238.38,225.49z"/>
		</g>
	</g>
	<g>
		<g>
			<path d="M696.732,260.143c1.287-1.456,2.407-3.028,3.577-4.578c1.069-1.415,2.161-2.798,3.296-4.159
				c0.3-0.356,0.6-0.711,0.9-1.067c0.475-1.246,0.913-1.42,1.312-0.522c1.487,0.587,3.604,4.303,4.639,5.567
				c1.699,2.075,3.363,4.177,5.01,6.294c0.251-0.605,0.501-1.21,0.752-1.815c-6.279-0.592-12.643-0.594-18.945-0.74
				c-1.607-0.037-1.601,2.436,0,2.493c6.297,0.224,12.646,0.598,18.945,0.375c0.996-0.035,1.304-1.105,0.752-1.815
				c-2.395-3.079-4.84-6.118-7.335-9.117c-0.951-1.143-2.561-4.175-4.372-4.088c-1.756,0.085-3.173,2.811-4.095,3.965
				c-2.085,2.61-4.167,5.278-5.609,8.304C695.217,259.953,696.132,260.823,696.732,260.143L696.732,260.143z"/>
		</g>
	</g>
	<g>
		<g>
			<path d="M369.132,260.143c1.287-1.456,2.407-3.028,3.577-4.578c1.069-1.415,2.161-2.798,3.296-4.159
				c0.3-0.356,0.6-0.711,0.9-1.067c0.475-1.246,0.913-1.42,1.312-0.522c1.487,0.587,3.604,4.303,4.639,5.567
				c1.699,2.075,3.363,4.177,5.01,6.294c0.251-0.605,0.501-1.21,0.752-1.815c-6.279-0.592-12.643-0.594-18.945-0.74
				c-1.607-0.037-1.601,2.436,0,2.493c6.297,0.224,12.646,0.598,18.945,0.375c0.996-0.035,1.304-1.105,0.752-1.815
				c-2.395-3.079-4.84-6.118-7.335-9.117c-0.951-1.143-2.561-4.175-4.372-4.088c-1.756,0.085-3.173,2.811-4.095,3.965
				c-2.085,2.61-4.167,5.278-5.609,8.304C367.616,259.953,368.531,260.823,369.132,260.143L369.132,260.143z"/>
		</g>
	</g>
	<g>
		<g>
			<path d="M379.5,261.5l-0.03,3.1c-0.005,0.536-0.444,0.965-0.979,0.96c-0.529-0.005-0.955-0.434-0.96-0.96l-0.03-3.1
				c-0.005-0.552,0.438-1.004,0.99-1.01s1.004,0.438,1.01,0.99C379.5,261.485,379.5,261.495,379.5,261.5z"/>
			<path d="M379.439,267.699l-0.03,3.1c-0.005,0.502-0.416,0.905-0.918,0.9c-0.496-0.005-0.895-0.407-0.9-0.9l-0.03-3.1
				c-0.005-0.519,0.411-0.943,0.93-0.948c0.519-0.005,0.943,0.411,0.948,0.93C379.439,267.685,379.439,267.695,379.439,267.699z"/>
			<path d="M379.378,273.898l-0.03,3.1c-0.005,0.468-0.388,0.844-0.856,0.839c-0.462-0.005-0.835-0.379-0.84-0.839l-0.03-3.1
				c-0.005-0.485,0.385-0.882,0.87-0.887s0.882,0.385,0.887,0.87C379.378,273.886,379.378,273.894,379.378,273.898z"/>
			<path d="M379.016,280.256c-0.248,1.077-0.636,2.12-1.151,3.094c-0.203,0.384-0.679,0.531-1.063,0.328
				c-0.379-0.201-0.527-0.669-0.335-1.05c0.434-0.863,0.755-1.781,0.953-2.724c0.093-0.442,0.526-0.725,0.968-0.633
				c0.442,0.092,0.725,0.526,0.633,0.968C379.019,280.243,379.017,280.252,379.016,280.256z"/>
			<path d="M375.967,286.038c-0.743,0.808-1.589,1.52-2.512,2.112c-0.338,0.217-0.787,0.119-1.003-0.219
				c-0.214-0.333-0.12-0.776,0.208-0.996c0.807-0.54,1.543-1.185,2.184-1.911c0.277-0.313,0.755-0.343,1.068-0.066
				c0.313,0.277,0.343,0.755,0.066,1.068C375.976,286.029,375.97,286.035,375.967,286.038z"/>
			<path d="M370.494,289.549c-1.042,0.336-2.127,0.534-3.217,0.591c-0.367,0.019-0.68-0.263-0.699-0.629
				c-0.019-0.362,0.257-0.672,0.617-0.698c0.975-0.071,1.939-0.267,2.86-0.584c0.363-0.125,0.759,0.068,0.884,0.431
				s-0.068,0.759-0.431,0.884C370.505,289.546,370.497,289.548,370.494,289.549z"/>
			<path d="M364.137,290.135l-3.1-0.03c-0.334-0.003-0.602-0.276-0.598-0.61c0.003-0.33,0.27-0.595,0.598-0.598l3.1-0.03
				c0.351-0.003,0.638,0.278,0.641,0.629s-0.278,0.638-0.629,0.641C364.146,290.135,364.14,290.135,364.137,290.135z"/>
			<path d="M357.938,290.074l-3.1-0.03c-0.3-0.003-0.541-0.249-0.538-0.549c0.003-0.296,0.243-0.535,0.538-0.538l3.1-0.03
				c0.317-0.003,0.576,0.251,0.579,0.568c0.003,0.317-0.251,0.576-0.568,0.579C357.946,290.074,357.94,290.074,357.938,290.074z"/>
			<path d="M351.738,290.013l-3.1-0.03c-0.267-0.003-0.48-0.221-0.478-0.487c0.003-0.263,0.216-0.475,0.478-0.478l3.1-0.03
				c0.283-0.003,0.515,0.225,0.518,0.508c0.003,0.283-0.225,0.515-0.508,0.518C351.746,290.013,351.741,290.013,351.738,290.013z"/>
			<path d="M345.539,289.952l-3.1-0.03c-0.233-0.002-0.42-0.193-0.418-0.426c0.002-0.23,0.189-0.415,0.418-0.418l3.1-0.03
				c0.25-0.002,0.454,0.198,0.457,0.448s-0.198,0.454-0.448,0.457C345.546,289.952,345.541,289.952,345.539,289.952z"/>
			<path d="M339.34,289.891l-3.1-0.03c-0.199-0.002-0.359-0.165-0.357-0.364c0.002-0.197,0.161-0.355,0.357-0.357l3.1-0.03
				c0.216-0.002,0.393,0.171,0.395,0.387s-0.171,0.393-0.387,0.395C339.346,289.891,339.342,289.891,339.34,289.891z"/>
			<path d="M333.141,289.83l-3.1-0.03c-0.166-0.002-0.299-0.137-0.297-0.303c0.002-0.164,0.134-0.295,0.297-0.297l3.1-0.03
				c0.182-0.002,0.332,0.145,0.334,0.327c0.002,0.182-0.145,0.332-0.327,0.334C333.145,289.83,333.142,289.83,333.141,289.83z"/>
			<path d="M326.941,289.77l-3.1-0.03c-0.132-0.001-0.238-0.109-0.237-0.241c0.001-0.13,0.107-0.235,0.237-0.237l3.1-0.03
				c0.149-0.001,0.271,0.118,0.272,0.267c0.001,0.149-0.118,0.271-0.267,0.272C326.945,289.77,326.943,289.77,326.941,289.77z"/>
			<path d="M320.742,289.709l-3.1-0.03c-0.098-0.001-0.177-0.081-0.176-0.18c0.001-0.097,0.08-0.175,0.176-0.176l3.1-0.03
				c0.115-0.001,0.21,0.091,0.211,0.207c0.001,0.115-0.091,0.21-0.207,0.211C320.745,289.709,320.743,289.709,320.742,289.709z"/>
			<path d="M314.543,289.648l-3.1-0.03c-0.065-0.001-0.117-0.054-0.116-0.118c0.001-0.064,0.052-0.115,0.116-0.116l3.1-0.03
				c0.082-0.001,0.148,0.065,0.149,0.146s-0.065,0.148-0.146,0.149C314.545,289.648,314.544,289.648,314.543,289.648z"/>
			<path d="M308.344,289.587l-3.1-0.03c-0.031,0-0.056-0.026-0.056-0.057c0-0.031,0.025-0.056,0.056-0.056l3.1-0.03
				c0.048,0,0.087,0.038,0.088,0.086s-0.038,0.087-0.086,0.088C308.345,289.587,308.344,289.587,308.344,289.587z"/>
			<path d="M302.144,289.526L299.5,289.5l2.644-0.026c0.014,0,0.026,0.011,0.026,0.026
				C302.171,289.514,302.159,289.526,302.144,289.526C302.145,289.526,302.144,289.526,302.144,289.526z"/>
		</g>
	</g>
	<g>
		<g>
			<path d="M559,222l0.013-3.1c0.002-0.545,0.446-0.985,0.991-0.983c0.542,0.002,0.981,0.442,0.983,0.983L561,222
				c0.002,0.552-0.444,1.002-0.996,1.004c-0.552,0.002-1.002-0.444-1.004-0.996V222z"/>
			<path d="M559.026,215.801l0.013-3.1c0.002-0.531,0.434-0.96,0.966-0.958c0.528,0.002,0.955,0.43,0.958,0.958l0.013,3.1
				c0.002,0.538-0.432,0.976-0.97,0.978c-0.538,0.002-0.976-0.432-0.978-0.97V215.801z"/>
			<path d="M559.051,209.602l0.013-3.1c0.002-0.517,0.423-0.934,0.94-0.932c0.514,0.002,0.93,0.419,0.932,0.932l0.013,3.1
				c0.002,0.524-0.421,0.951-0.945,0.953c-0.524,0.002-0.951-0.421-0.953-0.945V209.602z"/>
			<path d="M559.077,203.402l0.013-3.1c0.002-0.503,0.411-0.909,0.914-0.907c0.5,0.002,0.904,0.407,0.907,0.907l0.013,3.1
				c0.002,0.51-0.41,0.925-0.919,0.927c-0.51,0.002-0.925-0.409-0.927-0.919V203.402z"/>
			<path d="M559.102,197.203l0.013-3.1c0.002-0.489,0.4-0.883,0.888-0.881c0.486,0.002,0.879,0.396,0.881,0.881l0.013,3.1
				c0.002,0.496-0.398,0.899-0.894,0.901c-0.496,0.002-0.899-0.398-0.901-0.894V197.203z"/>
			<path d="M559.128,191.004l0.013-3.1c0.002-0.474,0.388-0.858,0.863-0.856c0.472,0.002,0.854,0.385,0.856,0.856l0.013,3.1
				c0.002,0.482-0.387,0.874-0.868,0.876c-0.482,0.002-0.874-0.387-0.876-0.868V191.004z"/>
			<path d="M559.154,184.804c-0.001-0.528,0.015-1.029-0.012-1.497c-0.025-0.481-0.081-0.959-0.167-1.433
				c-0.083-0.446,0.212-0.874,0.657-0.956c0.44-0.081,0.863,0.208,0.953,0.644c0.11,0.541,0.185,1.09,0.224,1.641
				c0.043,0.563,0.032,1.097,0.036,1.602c0.004,0.467-0.372,0.849-0.839,0.853c-0.467,0.004-0.849-0.372-0.853-0.84v-0.005V184.804z
				"/>
			<path d="M558.092,179.129c-0.412-0.873-0.938-1.694-1.56-2.435c-0.27-0.321-0.229-0.8,0.092-1.07
				c0.317-0.267,0.789-0.229,1.061,0.081c0.722,0.827,1.339,1.748,1.829,2.735c0.194,0.391,0.035,0.865-0.355,1.059
				c-0.391,0.194-0.865,0.035-1.059-0.355C558.098,179.141,558.094,179.133,558.092,179.129z"/>
			<path d="M554.398,174.729c-0.792-0.561-1.658-1.02-2.57-1.36c-0.362-0.135-0.546-0.537-0.411-0.898
				c0.133-0.357,0.528-0.541,0.886-0.416c1.032,0.362,2.018,0.86,2.925,1.475c0.333,0.226,0.421,0.679,0.195,1.012
				c-0.226,0.333-0.679,0.421-1.012,0.195C554.408,174.736,554.401,174.731,554.398,174.729z"/>
			<path d="M548.988,172.712c-0.492-0.021-0.961-0.064-1.49-0.059l-1.55-0.015c-0.352-0.003-0.635-0.292-0.631-0.644
				c0.003-0.348,0.285-0.628,0.631-0.631l1.55-0.015c0.504-0.016,1.067,0.018,1.607,0.034c0.369,0.011,0.658,0.319,0.647,0.687
				c-0.011,0.369-0.319,0.658-0.688,0.647c-0.002,0-0.003,0-0.005,0L548.988,172.712z"/>
			<path d="M542.848,172.607l-3.1-0.03c-0.319-0.003-0.574-0.264-0.571-0.583c0.003-0.315,0.258-0.568,0.571-0.571l3.1-0.03
				c0.335-0.003,0.61,0.266,0.613,0.601s-0.266,0.61-0.601,0.613C542.857,172.607,542.851,172.607,542.848,172.607z"/>
			<path d="M536.649,172.546l-3.1-0.03c-0.285-0.003-0.514-0.236-0.511-0.521c0.003-0.281,0.231-0.508,0.511-0.511l3.1-0.03
				c0.302-0.003,0.549,0.239,0.552,0.541c0.003,0.302-0.239,0.549-0.541,0.552C536.657,172.546,536.651,172.546,536.649,172.546z"/>
			<path d="M530.449,172.486l-3.1-0.03c-0.251-0.003-0.453-0.208-0.451-0.46c0.002-0.248,0.204-0.448,0.451-0.451l3.1-0.03
				c0.268-0.003,0.488,0.213,0.49,0.481c0.003,0.268-0.213,0.488-0.481,0.49C530.457,172.486,530.452,172.486,530.449,172.486z"/>
			<path d="M524.25,172.425l-3.1-0.03c-0.218-0.002-0.393-0.18-0.39-0.398c0.002-0.215,0.176-0.388,0.39-0.39l3.1-0.03
				c0.234-0.002,0.427,0.186,0.429,0.421s-0.186,0.427-0.421,0.429C524.256,172.425,524.252,172.425,524.25,172.425z"/>
			<path d="M518.051,172.364l-3.1-0.03c-0.184-0.002-0.332-0.153-0.33-0.337c0.002-0.182,0.149-0.328,0.33-0.33l3.1-0.03
				c0.201-0.002,0.365,0.159,0.367,0.36c0.002,0.201-0.159,0.365-0.36,0.367C518.056,172.364,518.053,172.364,518.051,172.364z"/>
			<path d="M511.852,172.303l-3.1-0.03c-0.151-0.001-0.271-0.125-0.27-0.275c0.001-0.149,0.122-0.268,0.27-0.27l3.1-0.03
				c0.167-0.002,0.304,0.133,0.306,0.3c0.002,0.167-0.133,0.304-0.3,0.306C511.856,172.303,511.853,172.303,511.852,172.303z"/>
			<path d="M505.652,172.242l-3.1-0.03c-0.117-0.001-0.211-0.097-0.21-0.214c0.001-0.115,0.095-0.208,0.21-0.21l3.1-0.03
				c0.134-0.001,0.243,0.106,0.244,0.24c0.001,0.134-0.106,0.243-0.24,0.244C505.656,172.242,505.654,172.242,505.652,172.242z"/>
			<path d="M499.453,172.181l-3.1-0.03c-0.083-0.001-0.15-0.069-0.149-0.152c0.001-0.082,0.067-0.148,0.149-0.149l3.1-0.03
				c0.1-0.001,0.182,0.079,0.183,0.179c0.001,0.1-0.079,0.182-0.179,0.183C499.456,172.181,499.454,172.181,499.453,172.181z"/>
			<path d="M493.254,172.12l-3.1-0.03c-0.05,0-0.089-0.041-0.089-0.091c0-0.049,0.04-0.088,0.089-0.089l3.1-0.03
				c0.066-0.001,0.121,0.053,0.121,0.119c0.001,0.066-0.053,0.121-0.119,0.121C493.256,172.12,493.254,172.12,493.254,172.12z"/>
			<path d="M487.055,172.059l-3.1-0.03c-0.016,0-0.029-0.013-0.029-0.029c0-0.016,0.013-0.029,0.029-0.029l3.1-0.03
				c0.033,0,0.06,0.026,0.06,0.059c0,0.033-0.026,0.06-0.059,0.06C487.055,172.059,487.055,172.059,487.055,172.059z"/>
		</g>
	</g>
	<g>
		<g>
			<path d="M706,262l-0.03,3.1c-0.005,0.536-0.444,0.965-0.979,0.96c-0.529-0.005-0.955-0.434-0.96-0.96L704,262
				c-0.005-0.552,0.438-1.004,0.99-1.01s1.004,0.438,1.01,0.99C706,261.985,706,261.995,706,262z"/>
			<path d="M705.939,268.199l-0.03,3.1c-0.005,0.502-0.416,0.905-0.918,0.9c-0.496-0.005-0.895-0.407-0.9-0.9l-0.03-3.1
				c-0.005-0.519,0.411-0.943,0.93-0.948c0.519-0.005,0.943,0.411,0.948,0.93C705.939,268.185,705.939,268.195,705.939,268.199z"/>
			<path d="M705.878,274.398l-0.03,3.1c-0.005,0.468-0.388,0.844-0.856,0.839c-0.462-0.005-0.835-0.379-0.84-0.839l-0.03-3.1
				c-0.005-0.485,0.385-0.882,0.87-0.887s0.882,0.385,0.887,0.87C705.878,274.386,705.878,274.394,705.878,274.398z"/>
			<path d="M705.516,280.756c-0.248,1.077-0.636,2.12-1.151,3.094c-0.203,0.384-0.679,0.531-1.063,0.328
				c-0.379-0.201-0.527-0.669-0.335-1.05c0.434-0.863,0.755-1.781,0.953-2.724c0.093-0.442,0.526-0.725,0.968-0.633
				c0.442,0.092,0.725,0.526,0.633,0.968C705.519,280.743,705.517,280.752,705.516,280.756z"/>
			<path d="M702.467,286.538c-0.743,0.808-1.589,1.52-2.512,2.112c-0.338,0.217-0.787,0.119-1.003-0.219
				c-0.214-0.333-0.12-0.776,0.208-0.996c0.807-0.54,1.543-1.185,2.184-1.911c0.277-0.313,0.755-0.343,1.068-0.066
				c0.313,0.277,0.343,0.755,0.066,1.068C702.476,286.529,702.47,286.535,702.467,286.538z"/>
			<path d="M696.994,290.049c-1.042,0.336-2.127,0.534-3.217,0.591c-0.367,0.019-0.68-0.263-0.699-0.629
				c-0.019-0.362,0.257-0.672,0.617-0.698c0.975-0.071,1.939-0.267,2.86-0.584c0.363-0.125,0.759,0.068,0.884,0.431
				s-0.068,0.759-0.431,0.884C697.005,290.046,696.997,290.048,696.994,290.049z"/>
			<path d="M690.637,290.635l-3.1-0.03c-0.334-0.003-0.602-0.276-0.598-0.61c0.003-0.33,0.27-0.595,0.598-0.598l3.1-0.03
				c0.351-0.003,0.638,0.278,0.641,0.629s-0.278,0.638-0.629,0.641C690.646,290.635,690.64,290.635,690.637,290.635z"/>
			<path d="M684.438,290.574l-3.1-0.03c-0.3-0.003-0.541-0.249-0.538-0.549c0.003-0.296,0.243-0.535,0.538-0.538l3.1-0.03
				c0.317-0.003,0.576,0.251,0.579,0.568c0.003,0.317-0.251,0.576-0.568,0.579C684.446,290.574,684.44,290.574,684.438,290.574z"/>
			<path d="M678.238,290.513l-3.1-0.03c-0.267-0.003-0.48-0.221-0.478-0.487c0.003-0.263,0.216-0.475,0.478-0.478l3.1-0.03
				c0.283-0.003,0.515,0.225,0.518,0.508c0.003,0.283-0.225,0.515-0.508,0.518C678.246,290.513,678.241,290.513,678.238,290.513z"/>
			<path d="M672.039,290.452l-3.1-0.03c-0.233-0.002-0.42-0.193-0.418-0.426c0.002-0.23,0.189-0.415,0.418-0.418l3.1-0.03
				c0.25-0.002,0.454,0.198,0.457,0.448s-0.198,0.454-0.448,0.457C672.046,290.452,672.041,290.452,672.039,290.452z"/>
			<path d="M665.84,290.391l-3.1-0.03c-0.199-0.002-0.359-0.165-0.357-0.364c0.002-0.197,0.161-0.355,0.357-0.357l3.1-0.03
				c0.216-0.002,0.393,0.171,0.395,0.387s-0.171,0.393-0.387,0.395C665.846,290.391,665.842,290.391,665.84,290.391z"/>
			<path d="M659.641,290.33l-3.1-0.03c-0.166-0.002-0.299-0.137-0.297-0.303c0.002-0.164,0.134-0.295,0.297-0.297l3.1-0.03
				c0.182-0.002,0.332,0.145,0.334,0.327c0.002,0.182-0.145,0.332-0.327,0.334C659.645,290.33,659.642,290.33,659.641,290.33z"/>
			<path d="M653.441,290.27l-3.1-0.03c-0.132-0.001-0.238-0.109-0.237-0.241c0.001-0.13,0.107-0.235,0.237-0.237l3.1-0.03
				c0.149-0.001,0.271,0.118,0.272,0.267c0.001,0.149-0.118,0.271-0.267,0.272C653.445,290.27,653.443,290.27,653.441,290.27z"/>
			<path d="M647.242,290.209l-3.1-0.03c-0.098-0.001-0.177-0.081-0.176-0.18c0.001-0.097,0.08-0.175,0.176-0.176l3.1-0.03
				c0.115-0.001,0.21,0.091,0.211,0.207c0.001,0.115-0.091,0.21-0.207,0.211C647.245,290.209,647.243,290.209,647.242,290.209z"/>
			<path d="M641.043,290.148l-3.1-0.03c-0.065-0.001-0.117-0.054-0.116-0.118c0.001-0.064,0.052-0.115,0.116-0.116l3.1-0.03
				c0.082-0.001,0.148,0.065,0.149,0.146s-0.065,0.148-0.146,0.149C641.045,290.148,641.044,290.148,641.043,290.148z"/>
			<path d="M634.844,290.087l-3.1-0.03c-0.031,0-0.056-0.026-0.056-0.057c0-0.031,0.025-0.056,0.056-0.056l3.1-0.03
				c0.048,0,0.087,0.038,0.088,0.086s-0.038,0.087-0.086,0.088C634.845,290.087,634.844,290.087,634.844,290.087z"/>
			<path d="M628.644,290.026L626,290l2.644-0.026c0.014,0,0.026,0.011,0.026,0.026C628.671,290.014,628.659,290.026,628.644,290.026
				C628.645,290.026,628.644,290.026,628.644,290.026z"/>
		</g>
	</g>
</g>
</svg>
